<svg width="752" height="321" fill="none" xmlns="http://www.w3.org/2000/svg"><path d="M3.521 15.98h25m0 0l-8.683-7.65m8.682 7.65l-8.681 7.65m56.64-7.61h-25m0 0l8.682 7.65m-8.681-7.65l8.681-7.65M160.021 5v22m0 0l7.649-8.682M160.021 27l-7.65-8.682M112.021 27V5m0 0l7.649 8.682M112.021 5l-7.65 8.682" stroke="#000" stroke-width="1.2" stroke-linecap="round" stroke-linejoin="round"/><path d="M57.5 121.6c-.7 0-1.234-.217-1.6-.65-.4-.4-.6-.917-.6-1.55 0-1.2.783-2.533 2.35-4 1.666-1.567 3.766-2.35 6.3-2.35 2.533 0 4.616.783 6.25 2.35 1.6 1.467 2.4 2.8 2.4 4 0 .6-.183 1.083-.55 1.45-.334.467-.8.717-1.4.75H57.5zm6.45-11.5c1.2 0 2.233-.433 3.1-1.3.833-.833 1.25-1.833 1.25-3 0-1.2-.417-2.217-1.25-3.05-.867-.9-1.9-1.35-3.1-1.35-1.2 0-2.234.45-3.1 1.35-.834.833-1.25 1.85-1.25 3.05 0 1.167.416 2.167 1.25 3 .866.867 1.9 1.3 3.1 1.3z" stroke="#000" stroke-width="1.2"/><path d="M25.05 112.1v7.55a1.8 1.8 0 01-1.8 1.8h-4.9v-7.55h-4.6v7.55h-4.9a1.8 1.8 0 01-1.8-1.8v-7.55m-1.95-1.5l9.087-9.087a2.6 2.6 0 013.677 0L27 110.65m127.24-53.363c0-1.595 1.776-2.548 3.105-1.667l9.983 6.615a2 2 0 010 3.335l-9.983 6.615c-1.329.881-3.105-.072-3.105-1.667v-13.23z" stroke="#000" stroke-width="1.2" stroke-linecap="round" stroke-linejoin="round"/><path d="M199.5 53.656c0-1.994 2.219-3.185 3.88-2.084l15.611 10.344c1.492.989 1.492 3.18 0 4.168L203.38 76.428c-1.661 1.102-3.88-.09-3.88-2.084V53.656z" fill="#000" stroke="#000" stroke-width="1.2" stroke-linecap="round" stroke-linejoin="round"/><path d="M156.85 100l.7 2.75m0 0c2.567-.7 5-.383 7.3.95m-7.3-.95c-2.567.7-4.517 2.183-5.85 4.45m13.15-3.5c2.267 1.3 3.75 3.233 4.45 5.8m-4.45-5.8l-2.75 4.6m7.2 1.2l2.75-.7m-2.75.7c.7 2.567.383 5-.95 7.3M148 115.25l2.75-.75m0 0c-.7-2.567-.383-5 .95-7.3m-.95 7.3c.7 2.567 2.183 4.5 4.45 5.8m-3.5-13.1l4.6 2.65m-1.1 10.45l2.65-4.65m-2.65 4.65c2.333 1.367 4.783 1.7 7.35 1m-4.7-5.65c-1.968-1.181-2.686-3.795-1.55-5.8m1.55 5.8c2.016 1.008 4.607.433 5.85-1.5m-7.4-4.3c1.168-2.011 3.786-2.758 5.8-1.55m0 0c1.961 1.242 2.669 3.779 1.6 5.85m0 0l4.65 2.65m0 0c-1.3 2.3-3.233 3.8-5.8 4.5m0 0l.75 2.75m-114.2 92.7h19.867m-19.867-9h29.8m-29.8-8.5h24.834" stroke="#000" stroke-width="1.2" stroke-linecap="round" stroke-linejoin="round"/><path d="M173.6 208.9c.267-.233.4-.517.4-.85 0-.333-.133-.633-.4-.9l-2.5-2.5c-.567-.633-.85-1.333-.85-2.1V199c0-.333-.117-.633-.35-.9-.233-.233-.533-.35-.9-.35h-3.55c-.767 0-1.467-.283-2.1-.85l-2.5-2.5a1.159 1.159 0 00-.85-.35c-.333 0-.633.117-.9.35l-2.5 2.5c-.633.567-1.333.85-2.1.85h-3.55c-.333 0-.633.117-.9.35-.233.267-.35.567-.35.9v3.55c0 .767-.283 1.467-.85 2.1l-2.5 2.5c-.233.267-.35.567-.35.9 0 .333.117.617.35.85l2.5 2.5c.567.633.85 1.333.85 2.1v3.55c0 .367.117.667.35.9.267.233.567.35.9.35h3.55c.767 0 1.467.283 2.1.85l2.5 2.5c.267.267.567.4.9.4.333 0 .617-.133.85-.4l2.5-2.5c.633-.567 1.333-.85 2.1-.85H169c.367 0 .667-.117.9-.35.233-.233.35-.533.35-.9v-3.55c0-.767.283-1.467.85-2.1l2.5-2.5zm-19.55 0c-.167-.167-.25-.35-.25-.55 0-.2.083-.367.25-.5.133-.167.3-.25.5-.25s.383.083.55.25l2.95 2.95 6.75-6.75c.133-.167.3-.25.5-.25s.383.083.55.25c.133.133.2.3.2.5s-.067.383-.2.55l-7.25 7.3a.863.863 0 01-.55.2.68.68 0 01-.5-.2l-3.5-3.5zm-40.717 2.733c0-6.504 4.673-13.293 12.109-15.344.711-.196 1.443.182 1.753.852l.061.132c.39.843-.027 1.843-.786 2.38-1.803 1.276-3.31 3.429-3.982 5.363-.28.806.325 1.566 1.119 1.881a6.95 6.95 0 014.393 6.464c0 4.243-3.445 6.639-6.932 6.639-4.02 0-7.735-3.073-7.735-8.367zm-17.333 0c0-6.504 4.673-13.293 12.109-15.344.711-.196 1.443.182 1.753.852l.06.132c.391.843-.027 1.843-.785 2.38-1.803 1.276-3.31 3.429-3.982 5.363-.281.806.325 1.566 1.118 1.881a6.95 6.95 0 014.394 6.464c0 4.243-3.446 6.639-6.932 6.639-4.02 0-7.735-3.073-7.735-8.367z" fill="#000"/><path d="M544.025 16.025l8.5 8.499m-8.5-8.499l-8.5 8.499m8.5-8.499l8.452-8.451m-8.452 8.451l-8.452-8.451" stroke="#000" stroke-width="1.2" stroke-linecap="round" stroke-linejoin="round"/><path d="M586.072 16h16.973m-19.899 9.716l18.993-7.868c1.646-.682 1.646-3.014 0-3.696l-18.993-7.868c-.863-.357-1.702.56-1.269 1.388l3.776 7.215a2.404 2.404 0 010 2.226l-3.776 7.215c-.433.828.406 1.745 1.269 1.388z" stroke="#000" stroke-width="1.2" stroke-linecap="round"/><path d="M458.899 16h-10.9m0 0v10.9m0-10.9h-10.85m10.85 0V5.15M307.4 99.95v4.3m0 0h-3.5m3.5 0h1.25a3 3 0 013 3v1.25m0 0h4.3m-4.3 0v3.5M300.4 99.95v4.3m0 0h3.5m-3.5 0h-1.25a3 3 0 00-3 3v1.25m7.75-4.25v-4.3m-12.05 8.55h4.3m0 0v3.5m2.19 0h2.61m0 0v-2.95h5.9v5.9h-5.9V112zm-9.1 0h4.3m0 0v3.5m4.25 8.55v-4.3m0 0h3.5m-3.5 0h-1.25a3 3 0 01-3-3v-1.25m0 0h-4.3m12.05 8.55v-4.3m0 0h3.5m4.25-7.75h4.3m-4.3 0v3.5m0 0h4.3m-4.3 0v1.25a3 3 0 01-3 3h-1.25m0 0v4.3m-56.85-59.796l2.79 2.79a1 1 0 001.417-.002l6.543-6.589M268 64c0-6.587-5.409-12-12-12-6.592 0-12 5.413-12 12 0 6.547 5.448 12 12 12 6.551 0 12-5.453 12-12z" stroke="#000" stroke-width="1.2" stroke-linecap="round" stroke-linejoin="round"/><path d="M688 148c6.592 0 12 5.413 12 12 0 6.547-5.449 12-12 12s-12-5.453-12-12c0-6.587 5.408-12 12-12z" fill="#9AE437" stroke="#9AE437" stroke-width="1.2" stroke-linecap="round" stroke-linejoin="round"/><path d="M682.55 160.253l2.791 2.791a1 1 0 001.416-.002l6.543-6.589" stroke="#071D2B" stroke-width="1.2" stroke-linecap="round" stroke-linejoin="round"/><path d="M198.1 115.65V104.4a2.4 2.4 0 012.4-2.4h13.4a2.4 2.4 0 012.4 2.4v1.2m-4.55 14.95h9.15m-9.15 0v-10.4a2.4 2.4 0 012.4-2.4h4.35a2.4 2.4 0 012.4 2.4v10.4m-9.15 0v1.05a2.4 2.4 0 002.4 2.4h4.35a2.4 2.4 0 002.4-2.4v-1.05m-25.75-2.4h14.25" stroke="#000" stroke-width="1.2" stroke-linecap="round" stroke-linejoin="round"/><circle cx="16.265" cy="208" stroke="#000" stroke-width="1.2" stroke-linecap="round" stroke-linejoin="round" stroke-dasharray="4 4" r="14.25"/><path fill-rule="evenodd" clip-rule="evenodd" d="M12.669 208c0 1.512.97 2.545 2.187 2.545.888 0 1.408-.516 1.732-1.106l-.635-.377c-.202.413-.608.716-1.097.716-.805 0-1.426-.745-1.426-1.778s.621-1.778 1.426-1.778c.489 0 .895.31 1.097.716l.635-.376c-.318-.59-.844-1.107-1.732-1.107-1.217 0-2.187 1.033-2.187 2.545zm-2.51-2.464v4.92h.742v-4.92h-.742zm7.89 2.464c0-1.468.894-2.545 2.162-2.545 1.268 0 2.162 1.077 2.162 2.545s-.894 2.545-2.162 2.545c-1.268 0-2.162-1.077-2.162-2.545zm2.162-1.778c.85 0 1.401.76 1.401 1.778 0 1.011-.551 1.778-1.401 1.778-.856 0-1.402-.767-1.402-1.778 0-1.018.546-1.778 1.402-1.778z" fill="#000"/><path d="M124.7 101.25h-3.9l-2.099 12.304a3 3 0 01-2.957 2.496h-8.442a3 3 0 01-2.873-2.136l-1.936-6.438a2 2 0 011.915-2.576H117.3m-1.55 5.55h-8.45m-2.85 11.1c0 1.194 1.006 2.2 2.2 2.2 1.174 0 2.25-1.011 2.25-2.2 0-1.208-1.041-2.25-2.25-2.25-1.229 0-2.2 1.038-2.2 2.25zm9.75 0c0-1.222 1.028-2.25 2.25-2.25 1.229 0 2.2 1.037 2.2 2.25a2.21 2.21 0 01-2.2 2.2c-1.213 0-2.25-.971-2.25-2.2zM251.938 4.89l9.746 9.745a2 2 0 010 2.828l-9.746 9.745m56.079 0l-9.745-9.745a2 2 0 010-2.828l9.745-9.746m103.133 7.064l-9.745 9.745a2 2 0 01-2.828 0l-9.745-9.745m-25.682 8.094l-9.745-9.745a2 2 0 00-2.828 0l-9.745 9.745m-144.299 7.272h23.133m-11.6-23.333v19m0 0l6.867-7.867m-6.867 7.867l-6.866-7.867m58.821 100.805l6.933 6.933m-6.933-6.933c-1.689 1.689-3.733 2.533-6.133 2.533-4.714 0-8.755-3.906-8.667-8.666 0-4.794 3.921-8.579 8.667-8.666 4.747 0 8.666 3.925 8.666 8.666 0 2.444-.844 4.489-2.533 6.133z" stroke="#000" stroke-width="1.2" stroke-linecap="round" stroke-linejoin="round"/><path d="M211.35 196.9l-2.5-2.5a1.159 1.159 0 00-.85-.35c-.333 0-.633.117-.9.35l-2.5 2.5c-.633.567-1.333.85-2.1.85h-3.55c-.333 0-.633.117-.9.35-.233.267-.35.567-.35.9v3.55c0 .767-.283 1.467-.85 2.1l-2.5 2.5c-.233.267-.35.567-.35.9 0 .333.117.617.35.85l2.5 2.5c.567.633.85 1.333.85 2.1v3.55c0 .367.117.667.35.9.267.233.567.35.9.35h3.55c.767 0 1.467.283 2.1.85l2.5 2.5c.267.267.567.4.9.4.333 0 .617-.133.85-.4l2.5-2.5c.633-.567 1.333-.85 2.1-.85H217c.367 0 .667-.117.9-.35.233-.233.35-.533.35-.9v-3.55c0-.767.283-1.467.85-2.1l2.5-2.5c.267-.233.4-.517.4-.85 0-.333-.133-.633-.4-.9l-2.5-2.5c-.567-.633-.85-1.333-.85-2.1V199c0-.333-.117-.633-.35-.9-.233-.233-.533-.35-.9-.35h-3.55c-.767 0-1.467-.283-2.1-.85zm-7.85 7.35v5.3a.612.612 0 01-.25.5.612.612 0 01-.5.25.76.76 0 01-.55-.25.675.675 0 01-.2-.5v-5.3c0-1.608.783-2.408 2.35-2.4h7.3c1.567-.008 2.35.792 2.35 2.4v5.3a.612.612 0 01-.25.5.612.612 0 01-.5.25.76.76 0 01-.55-.25.675.675 0 01-.2-.5v-5.3c0-.592-.283-.892-.85-.9h-7.3c-.567.008-.85.308-.85.9zm-3.05 7.4a.858.858 0 01.55-.2h14a.675.675 0 01.5.2.76.76 0 01.25.55.612.612 0 01-.25.5.612.612 0 01-.5.25h-14a.76.76 0 01-.55-.25.675.675 0 01-.2-.5.858.858 0 01.2-.55z" fill="#000"/><path d="M8.594 157.785v-9.537m-4.769 4.768h9.538m-1.4 10.594l-6.738 6.737m0-6.737l6.738 6.737m14.762-5.693H18.5m8.225 4.725H18.5m8.244-16.394h-8.225m335.505-28.882c2.216-.38 4.081-2.211 4.508-4.416m1.567-4.536c1.029-1.532 1.543-3.278 1.543-5.237 0-5.171-4.233-9.604-9.45-9.604-5.225 0-9.45 4.415-9.45 9.604 0 1.95.498 3.687 1.495 5.213m15.862.024v-2.391c0-1.172-.95-2.122-2.121-2.122v0c-1.172 0-2.122.95-2.122 2.122v4.878c0 1.172.95 2.122 2.122 2.122v0c1.171 0 2.121-.95 2.121-2.122v-2.487zm-15.862-.024v-2.367c0-1.172.95-2.122 2.121-2.122v0c1.172 0 2.122.95 2.122 2.122v4.878c0 1.172-.95 2.122-2.122 2.122v0a2.122 2.122 0 01-2.121-2.122v-2.511zm5.351 8.976v0c0 .667.541 1.207 1.207 1.207h2.023c.666 0 1.206-.54 1.206-1.207v0c0-.666-.54-1.206-1.206-1.206h-2.023c-.666 0-1.207.54-1.207 1.206zM400 117.867V111m0-3.209v-1.658M412 112c0-6.581-5.407-12-12-12-6.547 0-12 5.46-12 12 0 6.534 5.466 12 12 12 6.58 0 12-5.425 12-12z" stroke="#000" stroke-width="1.2" stroke-linecap="round" stroke-linejoin="round"/><path fill-rule="evenodd" clip-rule="evenodd" d="M447.999 99.4c-6.877 0-12.6 5.729-12.6 12.6 0 6.865 5.735 12.6 12.6 12.6 6.913 0 12.6-5.694 12.6-12.6 0-6.912-5.675-12.6-12.6-12.6zm.6 6.733a.6.6 0 10-1.2 0v1.658a.6.6 0 001.2 0v-1.658zm0 4.867a.6.6 0 10-1.2 0v6.867a.6.6 0 001.2 0V111z" fill="#000"/><path fill="#F0F" fill-opacity=".08" d="M528 192h32v32h-32z"/><path opacity=".16" d="M558.916 193L544 207.958 529.084 193M544 207.958L559 223l-15-15.042zm0 0L529 223l15-15.042z" stroke="#FF00DE" stroke-linecap="round" stroke-linejoin="round"/><path fill="#F0F" fill-opacity=".08" d="M480 192h32v32h-32z"/><path opacity=".16" d="M510.916 193L496 207.958 481.084 193M496 207.958L511 223l-15-15.042zm0 0L481 223l15-15.042z" stroke="#FF00DE" stroke-linecap="round" stroke-linejoin="round"/><path d="M486.801 112.372h5.721m-5.721 0c-.962.097-1.766.927-1.766 1.907 0 1 .857 1.907 1.871 1.907h9.924c-.541 1.032-1.272 2.519-2.189 4.463a5.454 5.454 0 00-.495 2.231c-.054 1.774 1.737 2.483 3.214 1.943 1.436-3.335 3.637-6.141 6.604-8.421l3.637-1.691v-10.688L497.96 101h-7.804c-.986 0-1.801.904-1.801 1.871 0 1.01.791 1.859 1.801 1.908m-3.355 7.593c-1.013-.047-1.801-.847-1.801-1.872 0-1.002.765-1.907 1.801-1.907h2.048m1.307-3.814h4.061m-4.061 0h-1.308c-1.013 0-1.8.93-1.8 1.907 0 1.034.789 1.814 1.801 1.907m0 0h5.439m40.513 3.035h5.721m-5.721 0c-.962-.097-1.766-.927-1.766-1.907 0-1 .857-1.907 1.871-1.907h9.924c-.541-1.032-1.272-2.519-2.189-4.463a5.454 5.454 0 01-.495-2.231c-.054-1.774 1.737-2.483 3.214-1.943 1.436 3.335 3.637 6.141 6.604 8.421l3.637 1.691v10.688L545.96 123h-7.804c-.986 0-1.801-.904-1.801-1.871 0-1.01.791-1.859 1.801-1.908m-3.355-7.593c-1.013.047-1.801.847-1.801 1.872 0 1.002.765 1.907 1.801 1.907h2.048m1.307 3.814h4.061m-4.061 0h-1.308c-1.013 0-1.8-.93-1.8-1.907 0-1.034.789-1.814 1.801-1.907m0 0h5.439M582 119.765V104.6a4.6 4.6 0 014.6-4.6h10.929m4.236 7.235V121a3 3 0 01-3 3h-9.53a3 3 0 01-3-3v-13.765a3 3 0 013-3h9.53a3 3 0 013 3zM352 167.199V171m0-22v3.801m-5.111 14.398h7.483a3.6 3.6 0 003.599-3.6v0a3.6 3.6 0 00-3.599-3.599h-4.745a3.6 3.6 0 01-3.599-3.599v0a3.6 3.6 0 013.599-3.6h7.483" stroke="#000" stroke-width="1.2" stroke-linecap="round" stroke-linejoin="round"/><path d="M390.87 158.277l-1.759-.541v6.249l-1.281 5.682h4.25l-1.21-5.682v-5.708zm-3.135-3.248c-.55.181-.55.959 0 1.14l10.392 3.414c1.217.4 2.529.4 3.746 0l10.392-3.414c.55-.181.55-.959 0-1.14l-10.392-3.414a6.011 6.011 0 00-3.746 0l-10.392 3.414z" fill="#000"/><path d="M392.222 158.682v4.424c0 2.992 5.811 3.382 7.778 3.382 1.946 0 7.778-.423 7.778-3.382v-4.424l-5.896 1.948a6 6 0 01-3.765 0l-5.895-1.948zm52.48-3.568l-.307.515 1.03.616.307-.515-1.03-.616zm3.686 9.837a.6.6 0 10-1.2 0h1.2zm-1.2 1.087a.6.6 0 001.2 0h-1.2zm2.994-9.083c0 .762-.355 1.44-.911 1.879l.744.942a3.592 3.592 0 001.367-2.821h-1.2zm-2.394-2.393a2.394 2.394 0 012.394 2.393h1.2a3.594 3.594 0 00-3.594-3.593v1.2zm-.6 7.386v.899h1.2v-.899h-1.2zm-1.456-6.218a2.393 2.393 0 012.056-1.168v-1.2a3.593 3.593 0 00-3.086 1.752l1.03.616zm1.456 9.221v1.087h1.2v-1.087h-1.2zM448 148.6c6.261 0 11.4 5.15 11.4 11.4h1.2c0-6.912-5.676-12.6-12.6-12.6v1.2zm11.4 11.4c0 6.244-5.151 11.4-11.4 11.4v1.2c6.912 0 12.6-5.694 12.6-12.6h-1.2zM448 171.4c-6.203 0-11.4-5.198-11.4-11.4h-1.2c0 6.865 5.734 12.6 12.6 12.6v-1.2zM436.6 160c0-6.209 5.185-11.4 11.4-11.4v-1.2c-6.878 0-12.6 5.729-12.6 12.6h1.2zm12.671-1.166c-.434.343-.945.763-1.346 1.257-.404.496-.737 1.116-.737 1.857h1.2c0-.363.161-.723.468-1.1.31-.381.727-.731 1.159-1.072l-.744-.942z" fill="#000"/><path d="M498.797 162.564h-2.877m2.877 0c1.09.053 1.93.91 1.93 2.005 0 1.096-.84 1.952-1.931 2.006h-1.851m1.852-4.011c1.09-.054 1.93-.911 1.93-2.006 0-1.096-.84-1.952-1.931-2.006m-2.876 0h2.876m0 0h8.234c1.074-.053 1.97-.914 1.97-2.006 0-1.101-.906-1.938-1.97-2.045h-14.459l4.177-4.129c.712-.812.741-2.013-.04-2.793-.792-.741-1.991-.789-2.796-.039l-8.666 8.613c-1.498 1.652-2.246 3.592-2.246 5.821 0 4.314 3.621 8.652 8.115 8.652h5.836c1.072 0 1.964-.999 1.964-2.045 0-1.097-.893-1.955-1.97-2.006m0 0h-1.025m45.283-4.011h2.876m-2.876 0c-1.091.053-1.931.91-1.931 2.005 0 1.096.841 1.952 1.931 2.006h1.851m-1.851-4.011c-1.09-.054-1.931-.911-1.931-2.006 0-1.096.841-1.952 1.931-2.006m2.876 0h-2.876m0 0h-8.234c-1.074-.053-1.969-.914-1.969-2.006 0-1.101.905-1.938 1.969-2.045h14.459l-4.177-4.129c-.712-.812-.741-2.013.04-2.793.792-.741 1.991-.789 2.796-.039l8.666 8.613c1.498 1.652 2.247 3.592 2.247 5.821 0 4.314-3.622 8.652-8.116 8.652h-5.835c-1.073 0-1.965-.999-1.965-2.045 0-1.097.893-1.955 1.97-2.006m0 0h1.025" stroke="#000" stroke-width="1.2" stroke-linecap="round" stroke-linejoin="round"/><path d="M256.5 194c-5.883 0-10.5 4.622-10.5 10.5 0 6.435 5.755 12.361 9.508 16.975.584.7 1.206.7 1.867 0 3.663-4.536 9.508-10.639 9.508-16.975 0-5.728-4.601-10.5-10.383-10.5zm-4.725 10.383c0-2.499 2.128-4.55 4.608-4.55 2.486 0 4.609 2.04 4.609 4.55a4.57 4.57 0 01-4.609 4.609 4.579 4.579 0 01-4.608-4.609z" fill="#000"/><path fill-rule="evenodd" clip-rule="evenodd" d="M357.492 210.987l2.327 7.464c.31.973-.828 2.004-1.727 1.327L352 215.154l-6.091 4.624c-.871.656-2.053-.303-1.728-1.327l2.329-7.464-6.044-4.588c-.835-.633-.452-2.136.659-2.136h7.482l2.317-7.429c.316-1.08 1.837-1.08 2.153 0l2.316 7.429h7.482c1.108 0 1.496 1.503.661 2.135l-6.044 4.589z" fill="#000"/><path opacity=".3" fill-rule="evenodd" clip-rule="evenodd" d="M405.492 210.987l2.327 7.464c.326 1.023-.857 1.982-1.727 1.327L400 215.154l-6.091 4.624c-.9.677-2.037-.354-1.728-1.327l2.329-7.464-6.044-4.588c-.835-.633-.452-2.136.659-2.136h7.482l2.317-7.429c.142-.483.57-.834 1.077-.834s.935.351 1.076.834l2.316 7.429h7.482c1.108 0 1.496 1.503.661 2.135l-6.044 4.589z" fill="#000"/><path fill-rule="evenodd" clip-rule="evenodd" d="M400.001 196L400 215.154l-6.091 4.624c-.9.677-2.037-.354-1.728-1.327l2.329-7.464-6.044-4.588c-.835-.633-.452-2.136.659-2.136h7.482l2.317-7.429c.142-.483.57-.834 1.077-.834zm51.328 11.063c.6.48.6 1.394 0 1.874l-4.379 3.503c-.786.629-1.95.069-1.95-.937v-7.006c0-1.006 1.164-1.566 1.95-.937l4.379 3.503z" fill="#000"/><path d="M604 208.218c-2.331-4.43-7.035-7.284-12.046-7.284-4.909 0-9.822 2.784-11.954 7.284 2.238 4.474 6.983 7.191 11.954 7.191 5.079 0 9.603-2.793 12.046-7.191z" stroke="#000" stroke-width="1.2" stroke-linecap="round" stroke-linejoin="round"/><path d="M591.861 201c-3.397 0-6.351 2.947-6.351 6.35 0 3.339 3.011 6.35 6.351 6.35 3.403 0 6.35-2.953 6.35-6.35 0-3.461-2.889-6.35-6.35-6.35zm-3.923 6.35c0-2.06 1.846-3.922 3.923-3.922.911 0 .998 1.494 0 1.494-1.283 0-2.429 1.132-2.429 2.428 0 .916-1.494.875-1.494 0z" fill="#000"/><circle cx="640" cy="208" r="6" fill="#000"/><path d="M293.556 53.374a.6.6 0 10-1.188.165l1.188-.165zm.041 4.633l-.594.083.085.607.605-.098-.096-.592zm20.726 16.317a.6.6 0 101.19-.149l-1.19.149zm.066-4.307l.595-.074-.075-.604-.603.084.083.594zm-4.633.04a.6.6 0 00.166 1.19l-.166-1.19zm-11.513-12.199a.6.6 0 00-.193-1.184l.193 1.184zm-5.62 5.411a.601.601 0 00-1.198-.075l1.198.075zm22.75 1.513a.6.6 0 001.197.08l-1.197-.08zm-23.005-11.243l.635 4.55 1.188-.165-.635-4.55-1.188.165zm23.145 20.636l-.529-4.232-1.19.148.529 4.233 1.19-.149zm-1.207-4.752l-4.55.635.166 1.188 4.55-.635-.166-1.188zm-20.613-10.824l4.55-.74-.193-1.185-4.549.74.192 1.185zM304 75.4c-6.297 0-11.4-5.104-11.4-11.4h-1.2c0 6.959 5.641 12.6 12.6 12.6v-1.2zm0-22.8c6.296 0 11.4 5.104 11.4 11.4h1.2c0-6.959-5.642-12.6-12.6-12.6v1.2zM292.6 64c0-.245.007-.49.023-.73l-1.198-.076c-.017.266-.025.535-.025.806h1.2zm22.8 0c0 .263-.009.523-.027.782l1.197.08c.02-.284.03-.572.03-.862h-1.2zm-1.553 5.747A11.395 11.395 0 01304 75.4v1.2c4.642 0 8.698-2.511 10.883-6.247l-1.036-.606zm-19.709-11.47A11.397 11.397 0 01304 52.6v-1.2a12.595 12.595 0 00-10.899 6.273l1.037.603z" fill="#000"/><path d="M349 56l6.586 6.586a2 2 0 010 2.828L349 72m54-16l-6.586 6.586a2 2 0 000 2.828L403 72m53-5l-6.586-6.586a2 2 0 00-2.828 0L440 67m64-6l-6.586 6.586a2 2 0 01-2.828 0L488 61m49-5l6.586 6.586a2 2 0 010 2.828L537 72m8-16l6.586 6.586a2 2 0 010 2.828L545 72m54-16l-6.586 6.586a2 2 0 000 2.828L599 72m-8-16l-6.586 6.586a2 2 0 000 2.828L591 72m53-16l6.586 6.586a2 2 0 010 2.828L644 72m-8-16l-6.586 6.586a2 2 0 000 2.828L636 72m61.993-8.01l3.507 3.516m-3.507-3.516l-3.506 3.516m3.506-3.516l3.487-3.496m-3.487 3.496l-3.487-3.496m-14.016-1.68v10.372m6.285 5.138l-5.629-4.47a2.403 2.403 0 00-1.493-.521H676.9a2.4 2.4 0 01-2.4-2.4v-5.866a2.4 2.4 0 012.4-2.4h2.753c.542 0 1.068-.184 1.493-.52l5.629-4.47c1.18-.937 2.92-.097 2.92 1.409v17.828c0 1.506-1.74 2.346-2.92 1.41z" stroke="#000" stroke-width="1.2" stroke-linecap="round" stroke-linejoin="round"/><path d="M722.5 61.067a2.4 2.4 0 012.4-2.4h3.59l6.285-4.99c1.18-.937 2.92-.097 2.92 1.409v17.828c0 1.506-1.74 2.346-2.92 1.41l-6.285-4.99h-3.59a2.4 2.4 0 01-2.4-2.4v-5.867z" fill="#000"/><path d="M728.49 58.814v10.372m14.765-8.184c1.743 1.517 1.743 4.479 0 5.996m4.667-7.163c2.421 2.108 2.421 6.222 0 8.33m-19.432-9.498h-3.59a2.4 2.4 0 00-2.4 2.4v5.866a2.4 2.4 0 002.4 2.4h3.59l6.285 4.99c1.18.938 2.92.097 2.92-1.409V55.086c0-1.506-1.74-2.346-2.92-1.41l-6.285 4.99zM58.6 155.8h-5a2.6 2.6 0 00-2.6 2.6v7.95a2.6 2.6 0 002.6 2.6h9.9l2.878 2.841a.6.6 0 001.022-.427v-6.814m-2.9-2l-2.826 2.826a.6.6 0 01-1.024-.425V152a2.6 2.6 0 012.6-2.6H74.4A2.6 2.6 0 0177 152v7.95a2.6 2.6 0 01-2.6 2.6h-9.9zm36.484 4.517h4.125m17.875 0h-14.85m-7.15-7.093h14.85m7.15 0h-4.125m-17.875-7.093h4.125m17.875 0h-14.85m-1.513 16.99v0c.836 0 1.513-.677 1.513-1.512v-2.639c0-.835-.677-1.512-1.513-1.512v0c-.835 0-1.512.677-1.512 1.512v2.639c0 .835.677 1.512 1.512 1.512zm10.725-7.038v0c.836 0 1.513-.677 1.513-1.512v-2.639c0-.835-.677-1.512-1.513-1.512v0c-.835 0-1.512.677-1.512 1.512v2.639c0 .835.677 1.512 1.512 1.512zm-10.725-7.148v0a1.512 1.512 0 01-1.512-1.513v-2.638c0-.835.677-1.513 1.512-1.513v0c.836 0 1.513.678 1.513 1.513v2.638c0 .836-.677 1.513-1.513 1.513z" stroke="#000" stroke-width="1.2" stroke-linecap="round" stroke-linejoin="round"/><path clip-rule="evenodd" d="M112 52c-6.58 0-12 5.425-12 12 0 6.617 5.383 12 12 12 6.575 0 12-5.42 12-12 0-6.533-5.474-12-12-12zm3.393 12.79a1 1 0 000-1.668l-4.439-2.938a1 1 0 00-1.552.833v5.878a1 1 0 001.552.833l4.439-2.938z" stroke="#000" stroke-width="1.2" stroke-linecap="round" stroke-linejoin="round"/><path d="M504.45 16H487.6M152.213 149.015l2.377.172 1.757 5.749-2.136 2.617c1.769 3.58 4.525 6.346 8.268 8.297l2.653-2.169 5.719 1.79.207 2.341c-1.286 2.158-3.043 3.225-5.271 3.202-3.055.046-6.557-1.653-10.508-5.095l-1.137-1.171c-3.445-3.948-5.156-7.459-5.133-10.535-.023-2.226 1.045-3.959 3.204-5.198zm68.275 4.744v12.8a3 3 0 01-3 3h-19a3 3 0 01-3-3v-12.85m25 .05v-.25a3 3 0 00-3-3h-19a3 3 0 00-3 3v.2m25 .05l-9.254 7.995a5 5 0 01-6.559-.019l-9.187-8.026m60.511 10.941v1.1m0-8.8v5.2m1.866-11.439l9.76 16.414c.872 1.467-.185 3.325-1.891 3.325h-19.47c-1.704 0-2.761-1.854-1.894-3.32l9.711-16.415c.851-1.438 2.931-1.44 3.784-.004zm35.196 2.526c-.277-1.246.043-2.54.934-3.474 1.038-.944 2.523-1.326 3.839-.778m12.297 0c1.267-.576 2.825-.184 3.788.778.89.934 1.211 2.228.934 3.474m-10.948.674v6.637l-2.439 2.489m13.023-2.489c0-5.815-4.767-10.578-10.584-10.578-5.793 0-10.533 4.809-10.533 10.578 0 5.764 4.749 10.577 10.533 10.577 5.808 0 10.584-4.767 10.584-10.577zM5.2 54.35l2 7.05m0 0l7.25-1.8M7.2 61.4c1.034-4.397 5.13-7.4 9.6-7.4 5.48 0 10 4.517 10 10 0 5.448-4.552 10-10 10-4.515 0-8.694-3.158-9.7-7.6m63.35-2.5V70a5 5 0 01-5 5H58a5 5 0 01-5-5v-7.45a5 5 0 015-5h6.1M67.4 53H75m0 0v7.6m0-7.6L61.1 66.95M293 208.247l5.33 5.33a2.599 2.599 0 003.677 0L315 200.584m313.001-79.787v0c0 1.163.943 2.107 2.106 2.107h5.927l1.115.37a8.994 8.994 0 005.7-.009l1.078-.361h5.967a2.107 2.107 0 002.107-2.107v0m-12-17.646v17.966m0-17.966l-9.705-1.884a2.6 2.6 0 00-3.095 2.553v12.339a2.999 2.999 0 002.428 2.945l10.372 2.013m0-17.966l9.709-1.867a2.6 2.6 0 013.091 2.553v12.341a2.999 2.999 0 01-2.434 2.946l-10.366 1.993m-4-13.867l-4.8-.932m4.8 4.932l-4.8-.931m4.8 4.931l-4.8-.931m12.8-7.069l4.8-.932m-4.8 4.932l4.8-.931m-4.8 4.931l4.8-.931" stroke="#000" stroke-width="1.2" stroke-linecap="round" stroke-linejoin="round"/><path d="M636 156l4 4m0 0l3.999 4M640 160l4-4m-4 4l-4 4m4-16c6.593 0 12 5.419 12 12 0 6.575-5.419 12-12 12-6.534 0-12-5.466-12-12 0-6.54 5.454-12 12-12zm-50.14 16.5l4.454-3.563a1.2 1.2 0 000-1.874l-4.454-3.563" stroke="#000" stroke-width="1.2" stroke-linecap="round"/><path d="M683.5 200.5v15m9-15v15" stroke="#000" stroke-width="3" stroke-linecap="round"/><path d="M15 255h14v-12l-14 2.2v9.8zm-12 0h10v-9.5l-10 1.58V255zm10 2H3v7.92l10 1.58V257zm2 0h14v12l-14-2.2V257zm52.023-16.345a5.46 5.46 0 00-1.717 1.552c-.388.552-.718 1.23-.99 2.035a6.1 6.1 0 00-.29 2.517c.698.046 1.377-.126 2.037-.517a4.976 4.976 0 001.63-1.552 8.526 8.526 0 001.018-2.172c.252-.805.34-1.644.262-2.518-.621.046-1.271.264-1.95.655zm4.928 27.259a13.307 13.307 0 001.973-2.403c.692-1.009 1.2-1.897 1.522-2.665.323-.768.508-1.196.554-1.284-.185 0-.853-.428-2.007-1.283-1.153-.856-1.822-2.337-2.007-4.443.138-1.756.657-3.072 1.557-3.95.9-.877 1.442-1.338 1.626-1.382-.922-1.185-1.914-1.942-2.975-2.271-1.062-.329-1.846-.493-2.353-.493-1.2-.044-2.296.142-3.288.559-.992.417-1.787.647-2.387.691-.6-.044-1.315-.241-2.146-.592a7.783 7.783 0 00-2.699-.593 6.61 6.61 0 00-3.46.955 8.095 8.095 0 00-2.63 2.534c-1.2 2.282-1.522 4.75-.969 7.405.554 2.655 1.5 4.904 2.838 6.747.6.921 1.28 1.744 2.041 2.468.762.724 1.627 1.086 2.596 1.086.876-.044 1.637-.23 2.283-.559.646-.33 1.5-.494 2.561-.494s1.903.164 2.526.494c.623.329 1.407.493 2.353.493.946 0 1.776-.34 2.491-1.02z" fill="#000"/><path fill-rule="evenodd" clip-rule="evenodd" d="M100.868 245.398a1.36 1.36 0 00-1.923 1.923l3.673 3.673c-4.01 2.908-6.618 7.63-6.618 12.962v2.068h32v-2.068c0-5.332-2.608-10.054-6.618-12.962l3.673-3.673a1.36 1.36 0 00-1.923-1.923l-4.155 4.155c-4.362-2.117-9.592-2.117-13.954 0l-4.155-4.155zm4.604 14.34a1.473 1.473 0 100-2.946 1.473 1.473 0 000 2.946zm13.054 0a1.473 1.473 0 10-.002-2.946 1.473 1.473 0 00.002 2.946zM154 242a8 8 0 00-8 8v12a8 8 0 008 8h12a8 8 0 008-8v-12a8 8 0 00-8-8h-12zm0 14c0-2.307 1.447-4 3.5-4s3.5 1.693 3.5 4-1.447 4-3.5 4-3.5-1.693-3.5-4zm1.2 0c0 1.693.962 2.8 2.3 2.8 1.338 0 2.3-1.107 2.3-2.8 0-1.693-.962-2.8-2.3-2.8-1.338 0-2.3 1.107-2.3 2.8zm7.452 1.775l-.652 1.042c.742.789 1.818 1.183 3.045 1.183 1.925 0 2.955-1.026 2.955-2.335 0-1.752-1.515-2.115-2.788-2.415-.909-.22-1.697-.441-1.697-1.104 0-.615.576-.994 1.5-.994s1.743.394 2.167.931l.606-.994c-.621-.616-1.53-1.089-2.788-1.089-1.788 0-2.788 1.041-2.788 2.256 0 1.638 1.448 1.987 2.688 2.286l.009.002c.939.221 1.773.474 1.773 1.231 0 .647-.546 1.089-1.576 1.089-.985 0-1.954-.521-2.454-1.089zM152 253v1h1v-1h-1zm0 6.5a.5.5 0 001 0V255h-1v4.5z" fill="#000"/><path d="M197.154 257.739v10.108a1.6 1.6 0 001.6 1.6h4.031a1.6 1.6 0 001.6-1.6v-6.571a1.6 1.6 0 011.6-1.6h4.03a1.6 1.6 0 011.6 1.6v6.571a1.6 1.6 0 001.6 1.6h4.031a1.6 1.6 0 001.6-1.6v-10.108l-9.497-10.744a1.802 1.802 0 00-2.698 0l-9.497 10.744z" fill="#000"/><path d="M206.501 245.107l-10.459 11.833a.946.946 0 11-1.419-1.254l10.68-12.082a3.6 3.6 0 015.394 0l10.68 12.082a.946.946 0 11-1.419 1.254l-10.459-11.833c-.797-.9-2.201-.9-2.998 0z" fill="#000"/><path fill-rule="evenodd" clip-rule="evenodd" d="M244.5 245h20a2.5 2.5 0 110 5h-20a2.5 2.5 0 110-5zm19 2.5a1 1 0 102 0 1 1 0 00-2 0z" fill="#000"/><path d="M244.5 258a2.5 2.5 0 110-5h12.451a11.04 11.04 0 00-4.491 5h-7.96zm0 8a2.5 2.5 0 110-5h7.101c-.066.49-.101.991-.101 1.5 0 1.224.2 2.401.569 3.5H244.5z" fill="#000"/><path fill-rule="evenodd" clip-rule="evenodd" d="M262.5 253a9.5 9.5 0 019.5 9.5 9.5 9.5 0 01-9.5 9.5 9.5 9.5 0 01-9.5-9.5 9.5 9.5 0 019.5-9.5zm4.43 10.098v4.402l-5.177-.814v-3.588h5.177zm-10 0v2.833l3.638.575v-3.408h-3.638zm10-1.196V257.5l-5.177.814v3.588h5.177zm-10-2.833v2.833h3.638v-3.408l-3.638.575zm51.873 11.923c.869-.07 1.668-.509 2.394-1.319l.269-.322c.327-.468.979-.937 1.957-1.405.363-.235.635-.391.816-.469.471-.312.725-.683.761-1.113h-.054c.036-.43-.236-.996-.816-1.699-.109-.156-.235-.527-.38-1.113v-.058c-.145-.664-.345-1.094-.598-1.289l-.218-.176-.217-.117c.471-1.445.417-2.987-.163-4.627-.508-1.367-1.359-2.832-2.555-4.394l-.055-.058c-.58-.82-.996-1.445-1.25-1.875a4.697 4.697 0 01-.491-1.895l.002-.682c0-1.367-.037-2.421-.109-3.163-.181-1.25-.544-2.226-1.087-2.929-.689-.859-1.667-1.289-2.936-1.289-1.45 0-2.537.41-3.262 1.23-.58.625-.924 1.523-1.033 2.695-.072.703-.072 1.659 0 2.87.037.547.055.918.055 1.113-.036.742-.145 1.386-.326 1.933-.182.625-.49 1.25-.925 1.874-1.558 1.992-2.609 3.886-3.153 5.682-.362 1.133-.471 2.168-.326 3.105-.145.117-.326.352-.543.703l-.327.469c-.145.156-.416.293-.815.41l-.163.058c-.471.196-.797.488-.979.879a1.43 1.43 0 00-.163.703c0 .156.018.39.055.703l.054.117c.072.547.072.918 0 1.113-.254.82-.29 1.425-.109 1.816.181.39.544.644 1.088.761.217.039.543.078.978.117.92.137 1.603.304 2.051.5l.178.086c1.123.664 2.138.879 3.044.645.689-.157 1.16-.547 1.414-1.172.217 0 .561-.059 1.033-.176a19.352 19.352 0 011.63-.234c.218-.039.635 0 1.251.117.725.117 1.304.156 1.739.117.037.157.073.293.109.41.218.469.526.82.924 1.055a2.06 2.06 0 001.251.293zm-3.208-22.553c-.108-.078-.326-.175-.652-.293l.217-.234a1.74 1.74 0 000-1.054c-.108-.352-.271-.537-.489-.557-.217-.019-.399.117-.544.41a1.455 1.455 0 00-.108.967 2.508 2.508 0 00-.707-.293 2.288 2.288 0 01.163-1.289c.254-.625.643-.937 1.169-.937.525 0 .933.312 1.223.937.145.391.199.811.163 1.26-.036.449-.181.81-.435 1.083zm-4.784.059c-.29-.273-.462-.654-.516-1.142-.055-.488.009-.928.19-1.318.181-.391.426-.586.734-.586s.571.185.788.556c.218.371.308.83.272 1.377a1.866 1.866 0 00-.544.293c.037-.274 0-.537-.108-.791-.109-.254-.263-.371-.462-.351-.2.019-.308.244-.327.673-.018.43.082.742.299.937v.059l-.135.117a2.74 2.74 0 00-.191.176zm1.903 3.105c-.217 0-.408-.04-.571-.118-.163-.078-.353-.224-.571-.439a4.651 4.651 0 00-.489-.439c-.435-.274-.707-.567-.815-.879-.073-.312 0-.566.217-.761l.87-.645c.471-.507.933-.761 1.386-.761.453 0 .933.175 1.441.527.145.078.344.176.598.293l.652.234c.544.234.734.596.571 1.084-.163.488-.571.83-1.223 1.025a9.614 9.614 0 00-.625.381 10.23 10.23 0 01-.626.38c-.253.118-.525.157-.815.118zm-.054-.879c.398 0 .96-.195 1.685-.586.29-.156.562-.361.815-.615.254-.254.308-.381.163-.381-.036-.039-.081-.01-.135.088a.497.497 0 01-.191.205l-.163.117c-.254.235-.453.371-.598.41-.652.43-1.196.645-1.631.645-.435 0-.87-.196-1.304-.586l-.435-.41-.055-.117c-.072-.117-.136-.176-.19-.176-.054 0-.072.049-.054.146a.517.517 0 00.136.264h.054l.38.41c.508.391 1.015.586 1.523.586zm-2.066 16.343c-.145-.312-.399-.703-.761-1.172.471 0 .77-.185.897-.556.127-.371-.009-.849-.408-1.435-.29-.43-.725-.879-1.305-1.348l-.761-.527c-.688-.468-1.141-1.054-1.359-1.757-.181-.625-.181-1.308 0-2.05.181-.937.671-2.109 1.468-3.515.145-.117 0 .293-.435 1.23-.362.742-.598 1.465-.707 2.168-.145 1.054.037 1.952.544 2.694.036-1.21.29-2.421.761-3.632l.381-.937c.507-1.171.869-2.089 1.087-2.753.399-1.133.616-2.109.652-2.929l.326.293c.109.039.254.156.435.351l.272.235c.326.273.689.41 1.087.41.399 0 .798-.117 1.196-.352l.327-.234c.253-.156.434-.254.543-.293.544-.195.942-.488 1.196-.879.218.86.544 1.855.979 2.988.362 1.093.725 1.972 1.087 2.636.652 1.289 1.069 2.538 1.25 3.749.181 0 .381.039.598.117.326-.937.29-1.953-.108-3.046-.29-.82-.671-1.464-1.142-1.933-.254-.273-.308-.41-.163-.41.398.39.761.879 1.087 1.464.399.664.68 1.348.843 2.051.163.702.172 1.386.027 2.05 1.341.586 1.903 1.269 1.685 2.05h-.272c.109-.312.064-.586-.136-.82-.199-.234-.57-.469-1.114-.703-1.268-.625-1.957-.391-2.066.703-.58.234-.96.781-1.141 1.64-.109.43-.2 1.191-.272 2.285 0 .312-.109.859-.326 1.64v.058c-.979.742-1.976 1.172-2.99 1.289-1.196.156-2.284-.117-3.262-.82zm6.36 2.402c-.181-.508-.163-1.211.055-2.109l.217-.762c.218-.781.326-1.327.326-1.64.073-1.093.145-1.855.218-2.284.145-.625.398-1.035.761-1.23h.054c.036.39.145.751.326 1.083.182.332.426.537.734.615.308.078.671.01 1.088-.205.416-.215.733-.459.951-.732h.109c.29-.039.516-.039.679 0 .163.039.326.137.489.293.136.13.26.423.37.879l.065.292c.127.625.281 1.035.462 1.231v.058c.508.586.761 1.055.761 1.406-.036.234-.181.449-.434.644-.145.118-.453.293-.925.528-.471.234-.833.449-1.087.644a3.913 3.913 0 00-.978.937c-.725.898-1.513 1.386-2.365 1.465-.852.078-1.477-.293-1.876-1.113zm-10.383.117c-.507-.274-1.305-.469-2.392-.586-.544-.078-.906-.156-1.087-.234-.326-.078-.544-.215-.653-.41-.145-.313-.09-.84.164-1.582.072-.273.054-.683-.055-1.23v-.176c-.072-.547-.045-.947.082-1.201.127-.253.389-.458.788-.615l.217-.117c.327-.117.598-.273.816-.468a4.99 4.99 0 00.435-.586l.38-.469c.254-.351.58-.488.979-.41.398.078.779.391 1.141.937l1.088 2.109c.108.273.416.742.924 1.406.435.625.743 1.074.924 1.347.29.508.417.918.381 1.23-.073.977-.562 1.543-1.468 1.699-.834.117-1.722-.098-2.664-.644zM365 265v-13a2 2 0 00-2-2h-4a2 2 0 00-2 2v13a2 2 0 002 2h4a2 2 0 002-2zm2-13a4 4 0 00-4-4h-4a4 4 0 00-4 4v13a4 4 0 004 4h4a4 4 0 004-4v-13z" fill="#000"/><path d="M341 245.251h16c.638 0 1.206.299 1.572.764.142-.01.284-.015.428-.015h1.8a4.002 4.002 0 00-3.8-2.749h-16a4 4 0 00-4 4v9a4 4 0 004 4h7v2.453h-4a1 1 0 000 2h9v-2h-3v-2.453h3v-3h-12a2 2 0 01-2-2v-8a2 2 0 012-2zm50.273 20.138a7.022 7.022 0 111.889-13.788 9.387 9.387 0 018.297-4.99 9.39 9.39 0 019.271 7.895 5.45 5.45 0 01-.43 10.883h-19.027zM17.597 299.722v2.188h3.067l-.509 3.273h-2.558v7.824h-3.542v-7.824h-2.862v-3.273h2.862v-2.988c0-.542.113-1.069.339-1.581.227-.512.541-.95.942-1.312 1.18-1.027 3.004-1.27 5.47-.728v2.767h-1.501c-.549.009-.97.158-1.265.449-.291.285-.439.686-.443 1.205z" fill="#000"/><path fill-rule="evenodd" clip-rule="evenodd" d="M58.398 293.143c1.447-.22 3.29-.243 5.622-.243s4.174.023 5.62.243c1.474.225 2.66.67 3.599 1.604l.019.019c.933.938 1.38 2.123 1.606 3.597.222 1.447.246 3.289.246 5.622 0 2.333-.024 4.175-.246 5.622-.226 1.474-.673 2.659-1.606 3.597l-.02.019c-.938.934-2.124 1.379-3.597 1.604-1.447.22-3.289.243-5.621.243-2.333 0-4.175-.023-5.621-.243-1.474-.225-2.66-.67-3.598-1.604l-.02-.019c-.931-.937-1.381-2.121-1.61-3.595-.225-1.448-.251-3.29-.251-5.624 0-2.334.026-4.176.25-5.624.23-1.474.68-2.658 1.612-3.595l.019-.019c.938-.934 2.124-1.379 3.597-1.604zm.302 1.977c-1.242.19-1.963.522-2.488 1.045l-.013.012c-.524.527-.86 1.249-1.052 2.491-.196 1.268-.227 2.951-.227 5.317s.03 4.049.227 5.317c.193 1.242.528 1.964 1.052 2.491l.013.013c.525.522 1.245.854 2.488 1.044 1.269.193 2.952.22 5.32.22 2.367 0 4.05-.027 5.32-.22 1.242-.19 1.962-.522 2.487-1.044l.013-.013c.523-.526.857-1.247 1.047-2.489.195-1.269.223-2.952.223-5.319s-.028-4.05-.223-5.319c-.19-1.242-.524-1.963-1.047-2.489l-.013-.012c-.525-.523-1.245-.855-2.487-1.045-1.27-.193-2.953-.22-5.32-.22-2.368 0-4.051.027-5.32.22zm-.282 8.865a5.602 5.602 0 1111.204 0 5.602 5.602 0 01-11.204 0zm5.602-3.602a3.602 3.602 0 100 7.205 3.602 3.602 0 000-7.205z" fill="#000"/><path d="M68.531 298.145a1.336 1.336 0 112.673 0 1.336 1.336 0 01-2.673 0zm38.191-2.404c0-1.312-1.086-2.192-2.361-2.192-1.275 0-2.35.937-2.361 2.192.011 1.254 1.086 2.192 2.361 2.192 1.275 0 2.361-.949 2.361-2.192zm-4.485 4.114h4.161v12.631h-4.161v-12.631zm14.866-.522c2.799 0 4.897 1.84 4.897 5.786v7.367h-4.165v-6.838c0-1.754-.502-2.894-2.076-2.894-1.29.002-2.084 1.416-2.084 2.63v7.103l-4.157-.001v-12.631h3.738v1.582a4.274 4.274 0 013.847-2.104z" fill="#000"/><path fill-rule="evenodd" clip-rule="evenodd" d="M168.762 299.5v.587a12.892 12.892 0 01-6.668 11.334 12.765 12.765 0 01-13.094-.475c.389 0 .681.097 1.071.097a8.803 8.803 0 005.646-1.956 4.506 4.506 0 01-4.186-3.131c.285.081.581.114.876.098a4.88 4.88 0 001.169-.196 4.502 4.502 0 01-3.603-4.401v-.098a3.817 3.817 0 001.947.489 4.546 4.546 0 01-2.044-3.717 4.306 4.306 0 01.584-2.25 12.489 12.489 0 009.345 4.695c0-.293-.097-.684-.097-1.076.029-2.473 2.017-4.472 4.478-4.5a4.386 4.386 0 013.31 1.468 8.935 8.935 0 002.823-1.077 4.636 4.636 0 01-1.947 2.544 13.045 13.045 0 002.628-.684 12.25 12.25 0 01-2.238 2.249zM195 300.648c0-2.962 2.162-5.477 5.11-5.75a85.227 85.227 0 0115.78 0c2.949.273 5.11 2.788 5.11 5.75v6.704c0 2.962-2.162 5.477-5.11 5.75a85.227 85.227 0 01-15.78 0c-2.949-.273-5.11-2.788-5.11-5.75v-6.704zm10.724 6.49a.5.5 0 01-.724-.447v-5.382a.5.5 0 01.724-.447l5.382 2.691a.5.5 0 010 .895l-5.382 2.69zM251 292a7 7 0 00-7 7v10a7 7 0 007 7h10a7 7 0 007-7v-10a7 7 0 00-7-7h-10zm.818 6.397v11.206h6.082c2.134 0 3.259-1.344 3.259-3.024 0-1.411-.957-2.571-2.15-2.755 1.058-.219 1.932-1.16 1.932-2.571 0-1.495-1.092-2.856-3.226-2.856h-5.897zm5.376 4.503h-2.99v-2.47h2.99c.807 0 1.311.538 1.311 1.226 0 .723-.504 1.244-1.311 1.244zm.084 4.67h-3.074v-2.638h3.074c.941 0 1.445.605 1.445 1.311 0 .806-.537 1.327-1.445 1.327z" fill="#000"/><path d="M300.997 297.455h-2.452a6.545 6.545 0 100 13.089h2.452M307 297.455h2.455a6.545 6.545 0 110 13.089H307M298.545 304h10.91" stroke="#000" stroke-width="2.8" stroke-linecap="round" stroke-linejoin="round"/><path d="M348 310.5a2.5 2.5 0 11-5 0 2.5 2.5 0 015 0zm-5-8.5c0-.552.449-1.004 1-.959 5.83.481 10.478 5.129 10.959 10.959.045.551-.407 1-.959 1h-1c-.552 0-.994-.45-1.055-.998a9.003 9.003 0 00-7.947-7.947c-.549-.061-.998-.503-.998-1.055v-1z" fill="#000"/><path d="M343 296c0-.552.448-1.003 1-.973 9.145.501 16.472 7.828 16.973 16.973.03.551-.421 1-.973 1h-1c-.552 0-.997-.449-1.033-1-.493-7.488-6.479-13.474-13.967-13.967-.551-.037-1-.481-1-1.033v-1z" fill="#000"/></svg>