<svg width="624" height="264" fill="none" xmlns="http://www.w3.org/2000/svg"><path d="M2.614 12.045h18.749m0 0l-6.511-5.737m6.511 5.737l-6.511 5.737M332 96.4v-5.2m0-2.5v-1.1m9 4.4c0-4.936-4.055-9-9-9-4.91 0-9 4.095-9 9 0 4.9 4.1 9 9 9 4.936 0 9-4.069 9-9z" stroke="#000" stroke-width="1.2" stroke-linecap="round" stroke-linejoin="round"/><path d="M369.398 128.259l-.307.515 1.03.615.307-.515-1.03-.615zm3.044 7.395a.6.6 0 00-1.2 0h1.2zm-1.2.874a.6.6 0 101.2 0h-1.2zm1.911-4.989l-.351-.487.351.487zm.334-1.823c0 .55-.269 1.036-.685 1.336l.702.974a2.844 2.844 0 001.183-2.31h-1.2zm-1.645-1.644c.908 0 1.645.736 1.645 1.644h1.2a2.844 2.844 0 00-2.845-2.844v1.2zm-.6 5.289v.4h1.2v-.4h-1.2zm-.814-4.487a1.645 1.645 0 011.414-.802v-1.2c-1.04 0-1.948.557-2.444 1.387l1.03.615zm.814 6.78v.874h1.2v-.874h-1.2zM372 123.6c4.613 0 8.4 3.795 8.4 8.4h1.2c0-5.267-4.323-9.6-9.6-9.6v1.2zm8.4 8.4c0 4.6-3.796 8.4-8.4 8.4v1.2c5.267 0 9.6-4.337 9.6-9.6h-1.2zm-8.4 8.4c-4.569 0-8.4-3.831-8.4-8.4h-1.2c0 5.232 4.368 9.6 9.6 9.6v-1.2zm-8.4-8.4c0-4.574 3.822-8.4 8.4-8.4v-1.2c-5.241 0-9.6 4.364-9.6 9.6h1.2zm9.202-.948c-.325.234-.703.533-1.003.896-.302.366-.557.84-.557 1.413h1.2c0-.199.086-.411.283-.65.199-.241.476-.468.779-.685l-.702-.974z" fill="#000"/><path d="M380.183 11.999h-8.175m0 0v8.175m0-8.175h-8.138m8.138 0V3.86M101.5 83.45h-2.9l-1.585 9.27a2.2 2.2 0 01-2.169 1.83h-6.425a2.2 2.2 0 01-2.107-1.568l-1.509-5.03a1.4 1.4 0 011.341-1.802h9.804m-2.3 12.5c0-.913.786-1.7 1.7-1.7.907 0 1.65.81 1.65 1.7 0 .886-.764 1.65-1.65 1.65-.905 0-1.7-.729-1.7-1.65zm-7.3 0c0-.931.702-1.7 1.65-1.7.907 0 1.65.81 1.65 1.7 0 .876-.769 1.65-1.65 1.65a1.64 1.64 0 01-1.65-1.65zm77-78.15h17.35M172 3v14.25m0 0l5.15-5.9m-5.15 5.9l-5.15-5.9" stroke="#000" stroke-width="1.2" stroke-linecap="round" stroke-linejoin="round"/><circle cx="12" cy="172" r="10.249" stroke="#000" stroke-width="1.2" stroke-linecap="round" stroke-linejoin="round" stroke-dasharray="4 4"/><path fill-rule="evenodd" clip-rule="evenodd" d="M8.377 172c0 1.523.977 2.562 2.202 2.562.894 0 1.418-.52 1.743-1.114l-.638-.378c-.204.415-.613.72-1.105.72-.81 0-1.436-.75-1.436-1.79s.626-1.79 1.436-1.79c.492 0 .9.312 1.105.721l.638-.379c-.319-.594-.849-1.114-1.743-1.114-1.225 0-2.202 1.04-2.202 2.562zm-2.526-2.481v4.954h.747v-4.954H5.85zM13.795 172c0-1.478.9-2.562 2.177-2.562 1.277 0 2.177 1.084 2.177 2.562 0 1.478-.9 2.562-2.177 2.562-1.277 0-2.177-1.084-2.177-2.562zm2.177-1.79c.856 0 1.411.765 1.411 1.79 0 1.018-.555 1.79-1.41 1.79-.863 0-1.412-.772-1.412-1.79 0-1.025.55-1.79 1.411-1.79zm284.68.589l-4.533 3.441 1.746 5.598c.243.767-.643 1.487-1.296.995L292 177.365l-4.568 3.468c-.675.509-1.528-.265-1.296-.995l1.747-5.598-4.534-3.441c-.627-.474-.337-1.602.495-1.602h5.612l1.737-5.572c.237-.81 1.378-.81 1.615 0l1.737 5.572h5.611c.831 0 1.122 1.127.496 1.602z" fill="#000"/><path opacity=".3" fill-rule="evenodd" clip-rule="evenodd" d="M336.119 174.24l1.746 5.598c.232.73-.622 1.503-1.296.995L332 177.365l-4.568 3.468c-.653.492-1.54-.227-1.296-.995l1.747-5.598-4.533-3.441c-.626-.475-.339-1.602.494-1.602h5.612l1.737-5.572a.85.85 0 01.808-.625.85.85 0 01.807.625l1.737 5.572h5.611c.832 0 1.122 1.127.496 1.602l-4.533 3.441z" fill="#000"/><path fill-rule="evenodd" clip-rule="evenodd" d="M332.001 163L332 177.365l-4.568 3.468c-.653.492-1.54-.227-1.296-.995l1.747-5.598-4.533-3.441c-.626-.475-.339-1.602.494-1.602h5.612l1.737-5.572a.85.85 0 01.808-.625z" fill="#000"/><path d="M93 174.725c0-4.922 3.568-10.062 9.233-11.549a.952.952 0 011.097.537l.202.437c.244.527-.016 1.15-.502 1.468-1.487.975-2.734 2.767-3.224 4.325-.16.509.218.985.721 1.163a5.213 5.213 0 013.473 4.915c0 3.182-2.584 4.979-5.199 4.979-3.015 0-5.801-2.305-5.801-6.275zm-13 0c0-4.922 3.568-10.062 9.233-11.549a.951.951 0 011.097.537l.202.437c.244.527-.016 1.15-.502 1.468-1.487.975-2.734 2.767-3.224 4.325-.16.509.218.985.72 1.163A5.212 5.212 0 0191 176.021c0 3.182-2.584 4.979-5.199 4.979-3.015 0-5.801-2.305-5.801-6.275z" fill="#000"/><path d="M220.55 100.55l-5.2-5.2m0 0c-1.267 1.267-2.8 1.9-4.6 1.9-3.535 0-6.566-2.93-6.5-6.5 0-3.595 2.94-6.434 6.5-6.5 3.561 0 6.5 2.944 6.5 6.5 0 1.833-.633 3.367-1.9 4.6zm-7.43-42.918l2.058 2.058a.8.8 0 001.133-.002l4.872-4.905m5.025 2.415c0-4.94-4.056-9-9-9s-9 4.06-9 9c0 4.91 4.086 9 9 9 4.913 0 9-4.09 9-9z" stroke="#000" stroke-width="1.2" stroke-linecap="round" stroke-linejoin="round"/><path d="M563.008 131.998c0-4.94 4.056-9 9-9s9 4.06 9 9c0 4.911-4.087 9-9 9-4.914 0-9-4.089-9-9z" fill="#9AE437" stroke="#9AE437" stroke-width="1.2" stroke-linecap="round" stroke-linejoin="round"/><path d="M567.92 132.433l2.057 2.057a.801.801 0 001.134-.002l4.871-4.905" stroke="#071D2B" stroke-width="1.2" stroke-linecap="round" stroke-linejoin="round"/><path d="M451.986 12.01l6.375 6.374m-6.375-6.374l-6.375 6.374m6.375-6.374l6.34-6.338m-6.34 6.338l-6.339-6.338M61.42 12.045H42.67m0 0l6.511-5.737m-6.511 5.737l6.511 5.737" stroke="#000" stroke-width="1.2" stroke-linecap="round" stroke-linejoin="round"/><path d="M139.7 165.25a.994.994 0 00-.25-.65c-.2-.2-.433-.3-.7-.3h-2.65c-.567 0-1.1-.2-1.6-.6l-1.85-1.9a.878.878 0 00-.65-.25.994.994 0 00-.65.25l-1.9 1.9c-.467.4-.983.6-1.55.6h-2.7c-.233 0-.45.1-.65.3a.994.994 0 00-.25.65v2.65c0 .6-.217 1.133-.65 1.6l-1.9 1.85c-.167.2-.25.433-.25.7 0 .233.083.45.25.65l1.9 1.85c.433.467.65 1 .65 1.6v2.65c0 .267.083.483.25.65.2.2.417.3.65.3h2.7c.567 0 1.083.2 1.55.6l1.9 1.9c.2.2.417.3.65.3.267 0 .483-.1.65-.3l1.85-1.9c.5-.4 1.033-.6 1.6-.6h2.65c.267 0 .5-.1.7-.3a.878.878 0 00.25-.65v-2.65c0-.6.217-1.133.65-1.6l1.85-1.85c.2-.2.3-.417.3-.65 0-.267-.1-.5-.3-.7l-1.85-1.85c-.433-.467-.65-1-.65-1.6v-2.65zm-3.35 4.55a.476.476 0 01-.2.4l-5 5a.476.476 0 01-.4.2.621.621 0 01-.45-.2l-2.5-2.5a.543.543 0 01-.15-.4c0-.166.05-.316.15-.45.134-.1.284-.15.45-.15.166 0 .299.05.4.15l2.1 2.1 4.55-4.6c.134-.1.284-.15.45-.15.166 0 .299.05.4.15.134.134.2.284.2.45z" fill="#000"/><path d="M251.9 82.9v3.3m0 0h2.9m-2.9 0h-2.95m5.85 0v-3.3m0 3.3h.75a2.2 2.2 0 012.2 2.2v.7m-14.95 0h3.3m0 0v2.95m0-2.95v-.7a2.2 2.2 0 012.2-2.2h.65m0 0v-3.3m-.651 9.1h1.401m0 0v-2.2h4.45v4.4h-4.45V92zm-6.9 2.95h3.3m0 0v-2.9m0 2.9v.65a2.2 2.2 0 002.2 2.2h.7m-2.9-5.75h-3.3m6.2 9V97.8m0 0h2.9m9.1-5.75h-3.25m0 0v2.9m0-2.9V89.1m0 5.85H261m-3.25 0v.65a2.2 2.2 0 01-2.2 2.2h-.7m6.15-8.7h-3.25m-2.9 8.7v3.25m0-3.25h-2.95m0 0v3.25M208.899 3.647l7.239 7.238a1.601 1.601 0 010 2.263l-7.239 7.238M128.5 47.456a1 1 0 011.585-.81l6.293 4.543a1 1 0 010 1.622l-6.293 4.544a1 1 0 01-1.585-.81v-9.09zm155.161-32.371l7.238-7.238a1.6 1.6 0 012.263 0l7.238 7.238m39.95-6.135l-7.222 7.222a1.6 1.6 0 01-2.259.003L323.6 8.95M255 20.386l-7.238-7.238a1.6 1.6 0 010-2.263L255 3.647" stroke="#000" stroke-width="1.2" stroke-linecap="round" stroke-linejoin="round"/><path d="M172 161.55a.994.994 0 00-.65.25l-1.9 1.9c-.467.4-.983.6-1.55.6h-2.7c-.233 0-.45.1-.65.3a.994.994 0 00-.25.65v2.65c0 .6-.217 1.133-.65 1.6l-1.9 1.85c-.167.2-.25.433-.25.7 0 .233.083.45.25.65l1.9 1.85c.433.467.65 1 .65 1.6v2.65c0 .267.083.483.25.65.2.2.417.3.65.3h2.7c.567 0 1.083.2 1.55.6l1.9 1.9c.2.2.417.3.65.3.267 0 .483-.1.65-.3l1.85-1.9c.5-.4 1.033-.6 1.6-.6h2.65c.267 0 .5-.1.7-.3a.878.878 0 00.25-.65v-2.65c0-.6.217-1.133.65-1.6l1.85-1.85c.2-.2.3-.417.3-.65 0-.267-.1-.5-.3-.7l-1.85-1.85c-.433-.467-.65-1-.65-1.6v-2.65a.994.994 0 00-.25-.65c-.2-.2-.433-.3-.7-.3h-2.65c-.567 0-1.1-.2-1.6-.6l-1.85-1.9a.878.878 0 00-.65-.25zm-3.7 12.05a.621.621 0 01-.45-.2.543.543 0 01-.15-.4v-2.7c0-1.667.833-2.5 2.5-2.5h3.6c1.667 0 2.5.833 2.5 2.5v2.7a.476.476 0 01-.2.4.476.476 0 01-.4.2.621.621 0 01-.45-.2.543.543 0 01-.15-.4v-2.7c0-.867-.433-1.3-1.3-1.3h-3.6c-.867 0-1.3.433-1.3 1.3v2.7a.476.476 0 01-.2.4.476.476 0 01-.4.2zm-1.4 1.95a.621.621 0 01-.45-.2.543.543 0 01-.15-.4c0-.166.05-.316.15-.45.134-.1.284-.15.45-.15h10.2c.166 0 .299.05.4.15.134.134.2.284.2.45a.476.476 0 01-.2.4.476.476 0 01-.4.2h-10.2z" fill="#000"/><path fill-rule="evenodd" clip-rule="evenodd" d="M374.149 171.219a1 1 0 010 1.562l-3.024 2.419a1 1 0 01-1.625-.781v-4.838a1 1 0 011.625-.781l3.024 2.419z" fill="#000"/><path d="M164.55 94.25V86.3a1.8 1.8 0 011.8-1.8h10.05a1.8 1.8 0 011.8 1.8v.55m-15.85 9.75h10.15m9.15 1.8h-6.9m6.9 0v-7.5a1.8 1.8 0 00-1.8-1.8h-3.3a1.8 1.8 0 00-1.8 1.8v7.5m6.9 0v.8a1.8 1.8 0 01-1.8 1.8h-3.3a1.8 1.8 0 01-1.8-1.8v-.8" stroke="#000" stroke-width="1.2" stroke-linecap="round" stroke-linejoin="round"/><path d="M212.04 160c-5.043 0-9 3.962-9 9 0 5.515 4.933 10.595 8.15 14.55.5.6 1.033.6 1.6 0 3.139-3.888 8.15-9.119 8.15-14.55 0-4.91-3.944-9-8.9-9zm-4.05 8.9c0-2.142 1.824-3.9 3.95-3.9 2.13 0 3.95 1.749 3.95 3.9a3.916 3.916 0 01-3.95 3.95 3.924 3.924 0 01-3.95-3.95z" fill="#000"/><path d="M132.016 3.75v16.5m0 0l5.737-6.512m-5.737 6.512l-5.738-6.512M92.016 20.25V3.75m0 0l5.737 6.512M92.016 3.75l-5.738 6.512" stroke="#000" stroke-width="1.2" stroke-linecap="round" stroke-linejoin="round"/><path d="M165.625 44.102c0-1.435 1.598-2.293 2.794-1.5l11.919 7.898a1.8 1.8 0 010 3l-11.919 7.898c-1.196.793-2.794-.065-2.794-1.5V44.102z" fill="#000" stroke="#000" stroke-width="1.2" stroke-linecap="round" stroke-linejoin="round"/><path d="M18.78 92.626V97.7a1.4 1.4 0 01-1.4 1.4h-3.647v-5.688h-3.466V99.1H6.62a1.4 1.4 0 01-1.4-1.4v-5.074m-1.469-1.7l6.817-6.817a2 2 0 012.828 0l6.855 6.854" stroke="#000" stroke-width="1.2" stroke-linecap="round" stroke-linejoin="round"/><path d="M47.144 99.224c-.525 0-.925-.163-1.2-.488-.3-.3-.45-.687-.45-1.162 0-.9.587-1.9 1.762-3 1.25-1.175 2.825-1.763 4.725-1.763 1.9 0 3.463.588 4.688 1.763 1.2 1.1 1.8 2.1 1.8 3 0 .45-.138.812-.413 1.087-.25.35-.6.538-1.05.563h-9.862zm4.837-8.625c.9 0 1.675-.325 2.325-.975a3.069 3.069 0 00.938-2.25c0-.9-.313-1.663-.938-2.288-.65-.675-1.425-1.012-2.325-1.012-.9 0-1.675.337-2.325 1.012-.625.625-.937 1.388-.937 2.288 0 .875.312 1.625.937 2.25.65.65 1.425.975 2.325.975z" stroke="#000" stroke-width="1.2"/><path d="M129.611 82.992l.553 2.064m0 0c1.932-.517 3.755-.281 5.47.709m-5.47-.709c-1.931.518-3.392 1.634-4.382 3.349m9.852-2.64c1.715.99 2.831 2.45 3.348 4.382m-3.348-4.382l-2.061 3.464m5.409.918l2.065-.553m-2.065.553c.518 1.932.282 3.755-.708 5.47m-4.701-6.388c.748.472 1.232 1.119 1.451 1.94.227.845.134 1.66-.277 2.442m-1.174-4.382c-.766-.442-1.571-.55-2.416-.323a3.07 3.07 0 00-1.931 1.487m5.521 3.218l3.527 2.006m-3.527-2.006c-.455.718-1.105 1.19-1.95 1.416-.821.22-1.623.124-2.406-.287m7.883.877c-.99 1.715-2.451 2.83-4.383 3.348m-8.109-10.56l3.444 1.988m-3.444-1.988c-.99 1.714-1.226 3.537-.709 5.47m4.153-3.482a3.07 3.07 0 00-.323 2.416 3.062 3.062 0 001.488 1.93m-5.318-.865c.518 1.932 1.634 3.393 3.349 4.383m-3.349-4.383l-2.064.553m5.413 3.83l1.969-3.517m-1.969 3.517c1.714.99 3.537 1.226 5.469.708m0 0l.553 2.065m-87.162 27.541H44.25a2 2 0 00-2 2v5.863a2 2 0 002 2h7.375l2.074 2.047a.5.5 0 00.851-.356v-4.297m-2.175-2.194l-2.034 2.034a.5.5 0 01-.854-.354v-9.543a2 2 0 012-2h8.263a2 2 0 012 2v5.863a2 2 0 01-2 2h-7.375zm204.484-9.56c.3-.134.617-.2.95-.2 1.517 0 2.65 1.266 2.65 2.75 0 .2-.017.416-.05.65m-16.35 0c-.067-.234-.1-.45-.1-.65a2.763 2.763 0 012.75-2.75c.3 0 .617.066.95.2m4.5 4v4.7l-1.7 1.75m9.15-1.75c0-4.114-3.326-7.5-7.45-7.5-4.136 0-7.4 3.401-7.4 7.5 0 4.1 3.295 7.4 7.4 7.4 4.093 0 7.45-3.286 7.45-7.4zM418.555 12.021h-12.637" stroke="#000" stroke-width="1.2" stroke-linecap="round" stroke-linejoin="round"/><path clip-rule="evenodd" d="M101 52c0-4.9-4.105-9-9-9-4.935 0-9 4.069-9 9 0 4.963 4.037 9 9 9 4.931 0 9-4.065 9-9zm-10.97 2.049a.8.8 0 001.241.667l3.189-2.11a.8.8 0 000-1.335l-3.189-2.11a.8.8 0 00-1.241.666v4.222z" stroke="#000" stroke-width="1.2" stroke-linecap="round" stroke-linejoin="round"/><path d="M6.933 123.137v3.577m0 0v3.576m0-3.576h3.576m-3.576 0H3.356m6.104 7.928l-2.527 2.526m0 0l-2.527 2.527m2.527-2.527l-2.527-2.526m2.527 2.526l2.527 2.527m11.088-4.278H14.38m6.168 3.544H14.38m6.132-12.271h-6.168M40.6 178.986h15.197M40.6 172.102h22.795M40.601 165.6h18.996M500 171.856c-1.554-2.953-4.691-4.856-8.031-4.856-3.273 0-6.548 1.856-7.969 4.856 1.491 2.983 4.655 4.794 7.969 4.794 3.386 0 6.402-1.862 8.031-4.794z" stroke="#000" stroke-width="1.2" stroke-linecap="round" stroke-linejoin="round"/><path d="M491.906 167.044c-2.264 0-4.233 1.965-4.233 4.234 0 2.226 2.007 4.233 4.233 4.233 2.269 0 4.234-1.969 4.234-4.233 0-2.308-1.926-4.234-4.234-4.234zm-2.614 4.234c0-1.374 1.23-2.615 2.614-2.615.608 0 .666.996 0 .996-.855 0-1.618.755-1.618 1.619 0 .61-.996.583-.996 0z" fill="#000"/><circle cx="532" cy="172" r="4" fill="#000"/><path d="M290 46l4.869 4.869a1.602 1.602 0 010 2.262L290 58m44-12l-4.869 4.869a1.602 1.602 0 000 2.262L334 58m44-3l-4.869-4.869a1.599 1.599 0 00-2.262 0L366 55m52-6l-4.869 4.869a1.599 1.599 0 01-2.262 0L406 49m41-3l4.869 4.869a1.602 1.602 0 010 2.262L447 58m6-12l4.869 4.869a1.602 1.602 0 010 2.262L453 58m44-12l-4.869 4.869a1.602 1.602 0 000 2.262L497 58m-6-12l-4.869 4.869a1.602 1.602 0 000 2.262L491 58m45.102-1.104l3.767-3.767a1.601 1.601 0 000-2.262l-3.767-3.767m-8.204 9.796l-3.767-3.767a1.601 1.601 0 010-2.262l3.767-3.767" stroke="#000" stroke-width="1.2" stroke-linecap="round" stroke-linejoin="round"/><path fill-rule="evenodd" clip-rule="evenodd" d="M372 82.4c-5.241 0-9.6 4.364-9.6 9.6 0 5.232 4.368 9.6 9.6 9.6 5.267 0 9.6-4.337 9.6-9.6 0-5.267-4.323-9.6-9.6-9.6zm-.588 5.08a.6.6 0 011.188.112V88.7a.6.6 0 01-1.2 0v-1.1m0 0c0-.041.004-.082.012-.12l-.012.12zm.012 3.48a.6.6 0 011.188.112V96.4a.6.6 0 01-1.2 0v-5.2m0 0c0-.041.004-.082.012-.12l-.012.12z" fill="#000"/><path fill="#F0F" fill-opacity=".08" d="M440 160h24v24h-24z"/><path opacity=".16" d="M463.187 160.75L452 171.968l-11.187-11.218M452 171.968l11.25 11.282L452 171.968zm0 0l-11.25 11.282L452 171.968z" stroke="#FF00DE" stroke-linecap="round" stroke-linejoin="round"/><path fill="#F0F" fill-opacity=".08" d="M400 160h24v24h-24z"/><path opacity=".16" d="M423.187 160.75L412 171.968l-11.187-11.218M412 171.968l11.25 11.282L412 171.968zm0 0l-11.25 11.282L412 171.968z" stroke="#FF00DE" stroke-linecap="round" stroke-linejoin="round"/><path d="M57.192 51.946v4.925a3.4 3.4 0 01-3.4 3.4h-6.413a3.4 3.4 0 01-3.4-3.4V50.46a3.4 3.4 0 013.4-3.4h4.925m8.175-3.287h-5.7m5.7 0v5.7m0-5.7L50.054 54.234m33.893 83.146h3.08m13.42 0H89.295m-5.348-5.32H95.07m5.377 0h-3.109m-13.39-5.32h3.078m13.421 0H89.295m8.043 5.324v-1.01c0-.627-.508-1.135-1.134-1.135v0c-.627 0-1.134.508-1.134 1.135v1.979c0 .626.507 1.134 1.134 1.134v0c.626 0 1.134-.508 1.134-1.134v-.969zm-9.178 7.381v0c.627 0 1.135-.507 1.135-1.134v-1.979c0-.626-.508-1.134-1.135-1.134v0c-.626 0-1.134.508-1.134 1.134v1.979c0 .627.508 1.134 1.134 1.134zm0-10.639v0c.627 0 1.135-.508 1.135-1.134v-1.979c0-.627-.508-1.134-1.135-1.134v0c-.626 0-1.134.507-1.134 1.134v1.979c0 .626.508 1.134 1.134 1.134zm39.999-4.936l-1.783-.129c-1.619.93-2.42 2.229-2.403 3.899-.017 2.307 1.266 4.94 3.85 7.901l.852.878c2.963 2.582 5.59 3.856 7.881 3.821 1.671.017 2.989-.783 3.953-2.401l-.155-1.756-4.289-1.342-1.989 1.626c-2.808-1.463-4.875-3.537-6.201-6.222l1.601-1.963-1.317-4.312zM4.105 44.784l1.5 5.288m0 0l5.437-1.35m-5.437 1.35c.776-3.298 3.846-5.55 7.2-5.55 4.109 0 7.5 3.387 7.5 7.5 0 4.086-3.414 7.5-7.5 7.5-3.386 0-6.521-2.369-7.275-5.7m206.629 81.751v1.1m0-7.8v4.2m1.399-8.101l7.44 12.482a1.6 1.6 0 01-1.375 2.419h-14.778a1.6 1.6 0 01-1.38-2.411l7.34-12.481a1.6 1.6 0 012.753-.009zm79.816-23.912c1.662-.285 3.061-1.658 3.381-3.312m1.175-3.402c.772-1.15 1.158-2.458 1.158-3.928 0-3.878-3.175-7.203-7.088-7.203-3.919 0-7.087 3.312-7.087 7.203 0 1.463.373 2.766 1.121 3.91m11.896.018v-1.794a1.59 1.59 0 00-1.591-1.59v0c-.878 0-1.591.712-1.591 1.59v3.66c0 .878.713 1.59 1.591 1.59v0a1.59 1.59 0 001.591-1.59v-1.866zm-11.896-.018v-1.776a1.59 1.59 0 011.591-1.59v0c.878 0 1.591.712 1.591 1.59v3.66c0 .878-.713 1.59-1.591 1.59v0a1.59 1.59 0 01-1.591-1.59v-1.884zm4.013 6.732v0c0 .5.406.905.905.905h1.517c.5 0 .905-.405.905-.905v0a.905.905 0 00-.905-.904h-1.517a.905.905 0 00-.905.904zm-108.672 26.234v9.45a2.4 2.4 0 01-2.4 2.4h-13.95a2.4 2.4 0 01-2.4-2.4v-9.488m18.75.038v-.038a2.4 2.4 0 00-2.4-2.4h-13.95a2.4 2.4 0 00-2.4 2.4v0m18.75.038l-6.777 5.854a3.998 3.998 0 01-5.246-.015l-6.727-5.877m129.718 9.98V140m0-16v2.764m-3.717 10.472h5.442a2.618 2.618 0 002.618-2.618v0a2.618 2.618 0 00-2.618-2.618h-3.45a2.618 2.618 0 01-2.618-2.618v0a2.618 2.618 0 012.618-2.618h5.442" stroke="#000" stroke-width="1.2" stroke-linecap="round" stroke-linejoin="round"/><path d="M324.913 130.5l-1.413-.435v4.87l-.96 4.565h3.28l-.907-4.565V130.5zm-2.178-2.874c-.55.18-.55.959 0 1.14l8.267 2.715a3.989 3.989 0 002.496 0l8.267-2.715c.55-.181.55-.96 0-1.14l-8.267-2.716a4.003 4.003 0 00-2.496 0l-8.267 2.716z" fill="#000"/><path d="M326 130.826v3.402c0 2.405 4.67 2.718 6.25 2.718 1.563 0 6.25-.34 6.25-2.718v-3.402l-4.995 1.65a3.99 3.99 0 01-2.51 0l-4.995-1.65z" fill="#000"/><path d="M404.875 92.529h4.291m-4.291 0c-.721.073-1.324.695-1.324 1.43 0 .75.643 1.43 1.403 1.43h7.443c-.406.774-.954 1.89-1.642 3.347a4.102 4.102 0 00-.371 1.674c-.041 1.33 1.303 1.862 2.41 1.457 1.077-2.5 2.728-4.606 4.953-6.315l2.728-1.269v-8.016L413.245 84h-5.854c-.739 0-1.35.678-1.35 1.403a1.43 1.43 0 001.35 1.43m-2.516 5.696a1.396 1.396 0 01-1.351-1.404c0-.751.574-1.43 1.351-1.43h1.536m.98-2.861h3.046m-3.046 0h-.98c-.761 0-1.35.697-1.35 1.43 0 .776.591 1.361 1.35 1.43m0 0h4.079m34.385 1.777h4.291m-4.291 0c-.721-.073-1.324-.695-1.324-1.43 0-.75.643-1.43 1.403-1.43h7.443a94.161 94.161 0 01-1.642-3.347 4.102 4.102 0 01-.371-1.674c-.041-1.33 1.303-1.862 2.41-1.457 1.077 2.5 2.728 4.606 4.953 6.315l2.728 1.269v8.016l-7.23 2.267h-5.854c-.739 0-1.35-.678-1.35-1.403a1.43 1.43 0 011.35-1.43m-2.516-5.696a1.396 1.396 0 00-1.351 1.404c0 .751.574 1.43 1.351 1.43h1.536m.98 2.861h3.046m-3.046 0h-.98c-.761 0-1.35-.697-1.35-1.43 0-.776.591-1.361 1.35-1.43m0 0h4.079M485 97.5V87.1a3.6 3.6 0 013.6-3.6h7.4m3 5.4v9.2a2.4 2.4 0 01-2.4 2.4h-6.2a2.4 2.4 0 01-2.4-2.4v-9.2a2.4 2.4 0 012.4-2.4h6.2a2.4 2.4 0 012.4 2.4z" stroke="#000" stroke-width="1.2" stroke-linecap="round" stroke-linejoin="round"/><path d="M245.236 44.888a.6.6 0 00-1.189.166l1.189-.166zm-.171 3.116l-.594.083.085.608.605-.098-.096-.593zm13.619 10.904a.6.6 0 101.19-.15l-1.19.15zm.242-2.897l.596-.074-.076-.604-.603.084.083.594zm-3.116-.17a.6.6 0 00.166 1.188l-.166-1.189zm-7.615-7.738a.599.599 0 10-.193-1.185l.193 1.185zm-3.58 3.422a.6.6 0 10-1.198-.075l1.198.075zm14.768.983a.6.6 0 101.197.08l-1.197-.08zm-15.336-7.454l.424 3.033 1.188-.166-.423-3.033-1.189.166zm15.827 13.705l-.352-2.822-1.191.149.353 2.822 1.19-.15zm-1.031-3.342l-3.033.423.166 1.189 3.033-.423-.166-1.189zm-13.682-6.82l3.034-.494-.193-1.185-3.033.494.192 1.185zM252 59.4a7.4 7.4 0 01-7.4-7.4h-1.2a8.6 8.6 0 008.6 8.6v-1.2zm0-14.8a7.4 7.4 0 017.4 7.4h1.2a8.6 8.6 0 00-8.6-8.6v1.2zm-7.4 7.4c0-.16.005-.318.015-.474l-1.198-.076a9.117 9.117 0 00-.017.55h1.2zm14.8 0c0 .17-.006.34-.017.508l1.197.08c.013-.194.02-.39.02-.588h-1.2zm-1.008 3.73A7.396 7.396 0 01252 59.4v1.2a8.596 8.596 0 007.428-4.264l-1.036-.605zm-12.793-7.445A7.395 7.395 0 01252 44.6v-1.2a8.598 8.598 0 00-7.439 4.281l1.038.604z" fill="#000"/><path d="M487.665 12h12.606m-14.634 7.156l14.152-5.863c1.153-.477 1.153-2.11 0-2.586l-14.152-5.863c-.69-.286-1.361.447-1.015 1.11l2.679 5.119c.303.58.303 1.273 0 1.854l-2.679 5.12c-.346.662.325 1.395 1.015 1.109z" stroke="#000" stroke-width="1.2" stroke-linecap="round"/><path d="M243.75 172.186l3.962 3.962a2 2 0 002.829 0l9.709-9.71m153.848-32.515h-2.158m2.158 0c.817.04 1.447.682 1.447 1.504s-.63 1.464-1.447 1.504h-1.389m1.389-3.008c.817-.041 1.447-.683 1.447-1.505 0-.821-.63-1.464-1.447-1.504m-2.158 0h2.158m0 0h6.175c.805-.04 1.477-.685 1.477-1.504 0-.827-.679-1.454-1.477-1.534h-10.844l3.132-3.097c.535-.609.556-1.509-.03-2.094-.593-.556-1.493-.593-2.096-.03l-6.5 6.46c-1.124 1.239-1.685 2.694-1.685 4.365 0 3.236 2.716 6.489 6.086 6.489h4.377c.804 0 1.473-.748 1.473-1.533 0-.823-.669-1.467-1.477-1.505m0 0h-.769m37.962-3.008h2.158m-2.158 0a1.496 1.496 0 00-1.447 1.504c0 .822.63 1.464 1.447 1.504h1.389m-1.389-3.008c-.817-.041-1.447-.683-1.447-1.505 0-.821.63-1.464 1.447-1.504m2.158 0h-2.158m0 0h-6.175c-.805-.04-1.477-.685-1.477-1.504 0-.827.679-1.454 1.477-1.534h10.844l-3.132-3.097c-.535-.609-.556-1.509.03-2.094.593-.556 1.493-.593 2.096-.03l6.5 6.46c1.124 1.239 1.685 2.694 1.685 4.365 0 3.236-2.716 6.489-6.086 6.489h-4.377c-.804 0-1.473-.748-1.473-1.533 0-.823.669-1.467 1.477-1.505m0 0h.769" stroke="#000" stroke-width="1.2" stroke-linecap="round" stroke-linejoin="round"/><path d="M529 129l3 3m0 0l3 3m-3-3l3-3m-3 3l-3 3m3-12c4.945 0 9 4.064 9 9 0 4.931-4.064 9-9 9-4.9 0-9-4.1-9-9 0-4.905 4.09-9 9-9zm-41.605 12.375l3.438-2.75c.4-.321.4-.929 0-1.25l-3.438-2.75" stroke="#000" stroke-width="1.2" stroke-linecap="round"/><path d="M523 99.014v0c0 .827.67 1.498 1.497 1.498h4.528l.757.251a7 7 0 004.434-.007l.729-.244h4.558c.827 0 1.497-.67 1.497-1.498v0m-9-13.65v13.474m0-13.475l-7.219-1.4a2 2 0 00-2.381 1.963v8.905a2.6 2.6 0 002.105 2.552L532 98.838m0-13.475l7.222-1.388a2 2 0 012.378 1.964v8.906a2.6 2.6 0 01-2.109 2.553L532 98.838m-3-10.4l-3.6-.7m3.6 3.7l-3.6-.7m3.6 3.7l-3.6-.7m9.6-5.3l3.6-.7m-3.6 3.7l3.6-.7m-3.6 3.7l3.6-.7m40.895-41.745l2.63 2.637m-2.63-2.637l-2.63 2.637m2.63-2.637l2.615-2.623m-2.615 2.623l-2.615-2.623m-10.513-1.26v7.78M571 59.677l-4.141-3.288a1.8 1.8 0 00-1.119-.39h-2.065a1.8 1.8 0 01-1.8-1.8v-4.4a1.8 1.8 0 011.8-1.8h2.065a1.8 1.8 0 001.119-.39L571 44.322c.918-.729 2.271-.076 2.271 1.096v13.164c0 1.172-1.353 1.825-2.271 1.096z" stroke="#000" stroke-width="1.2" stroke-linecap="round" stroke-linejoin="round"/><path d="M601.875 49.8a1.8 1.8 0 011.8-1.8h2.692L611 44.322c.918-.729 2.271-.076 2.271 1.096v13.164c0 1.172-1.353 1.825-2.271 1.096L606.367 56h-2.692a1.8 1.8 0 01-1.8-1.8v-4.4z" fill="#000"/><path d="M606.367 48.11v7.78m11.074-6.139c1.307 1.138 1.307 3.36 0 4.498m3.5-5.373c1.816 1.581 1.816 4.667 0 6.248M606.367 48h-2.692a1.8 1.8 0 00-1.8 1.8v4.4a1.8 1.8 0 001.8 1.8h2.692L611 59.678c.918.729 2.271.076 2.271-1.096V45.418c0-1.172-1.353-1.825-2.271-1.096L606.367 48z" stroke="#000" stroke-width="1.2" stroke-linecap="round" stroke-linejoin="round"/><path d="M570 168v9m5-9v9" stroke="#000" stroke-width="1.2" stroke-linecap="round"/><path d="M11 211.5h11v-9l-11 1.65v7.35zm-1 0H2v-5.941l8-1.229v7.17zm-8 1h8v7.188l-8-1.248v-5.94zm9 0h11v9l-11-1.65v-7.35zm43.418-12.016a4.266 4.266 0 00-1.373 1.147c-.31.408-.574.909-.791 1.503a4.188 4.188 0 00-.233 1.861 2.964 2.964 0 001.63-.383 3.861 3.861 0 001.303-1.146 6.093 6.093 0 00.815-1.606 4.408 4.408 0 00.21-1.86c-.498.034-1.017.195-1.56.484zm3.546 20.699a10.015 10.015 0 001.479-1.808c.519-.759.9-1.427 1.142-2.005.242-.578.38-.9.415-.966-.138 0-.64-.322-1.505-.966-.865-.643-1.367-1.758-1.505-3.342.103-1.321.493-2.311 1.167-2.971.675-.661 1.082-1.007 1.22-1.04-.692-.892-1.436-1.461-2.232-1.709-.796-.247-1.384-.371-1.765-.371-.9-.033-1.721.107-2.465.421-.744.313-1.34.487-1.79.52-.45-.033-.987-.182-1.61-.446a5.822 5.822 0 00-2.024-.446c-.934 0-1.8.24-2.595.718a6.088 6.088 0 00-1.973 1.907c-.9 1.717-1.142 3.574-.726 5.571.415 1.997 1.124 3.689 2.128 5.076.45.693.96 1.312 1.531 1.857.57.545 1.22.817 1.946.817.658-.033 1.229-.173 1.713-.421.485-.248 1.125-.371 1.92-.371.797 0 1.428.123 1.895.371.467.248 1.056.371 1.765.371.71 0 1.332-.255 1.869-.767z" fill="#000"/><path fill-rule="evenodd" clip-rule="evenodd" d="M83.651 204.043a1.02 1.02 0 00-1.442 1.442l2.754 2.755A11.982 11.982 0 0080 217.961v1.551h24v-1.551c0-3.999-1.956-7.541-4.963-9.721l2.754-2.755a1.02 1.02 0 00-1.442-1.442l-3.116 3.116a12.09 12.09 0 00-10.466 0l-3.116-3.116zm3.453 10.754a1.104 1.104 0 10.001-2.208 1.104 1.104 0 000 2.208zm9.79 0a1.104 1.104 0 10.001-2.208 1.104 1.104 0 000 2.208zM127 200a7 7 0 00-7 7v10a7 7 0 007 7h10a7 7 0 007-7v-10a7 7 0 00-7-7h-10zm-1 12c0-2.307 1.447-4 3.5-4s3.5 1.693 3.5 4-1.447 4-3.5 4-3.5-1.693-3.5-4zm1.2 0c0 1.693.962 2.8 2.3 2.8 1.338 0 2.3-1.107 2.3-2.8 0-1.693-.962-2.8-2.3-2.8-1.338 0-2.3 1.107-2.3 2.8zm7.452 1.775l-.652 1.042c.742.789 1.818 1.183 3.045 1.183 1.925 0 2.955-1.026 2.955-2.335 0-1.752-1.515-2.115-2.788-2.415-.909-.22-1.697-.441-1.697-1.104 0-.615.576-.994 1.5-.994s1.743.394 2.167.931l.606-.994c-.621-.616-1.53-1.089-2.788-1.089-1.788 0-2.788 1.041-2.788 2.256 0 1.638 1.448 1.987 2.688 2.286l.009.002c.939.221 1.773.474 1.773 1.231 0 .647-.546 1.089-1.576 1.089-.985 0-1.954-.521-2.454-1.089zM124 209v1h1v-1h-1zm0 6.5a.5.5 0 001 0V211h-1v4.5z" fill="#000"/><path d="M163.866 213.59v7.581a1.2 1.2 0 001.2 1.2h3.023c.662 0 1.2-.538 1.2-1.2v-4.928a1.2 1.2 0 011.2-1.2h3.022a1.2 1.2 0 011.2 1.2v4.928c0 .662.538 1.2 1.2 1.2h3.023a1.2 1.2 0 001.2-1.2v-7.581l-7.235-8.185a1.199 1.199 0 00-1.798 0l-7.235 8.185z" fill="#000"/><path d="M170.951 204.031l-7.919 8.959a.71.71 0 11-1.064-.94l8.084-9.146a2.6 2.6 0 013.896 0l8.084 9.146a.71.71 0 11-1.064.94l-7.919-8.959a1.4 1.4 0 00-2.098 0z" fill="#000"/><path fill-rule="evenodd" clip-rule="evenodd" d="M201.5 205.625c0-1.036.839-1.875 1.875-1.875h15a1.874 1.874 0 110 3.75h-15a1.874 1.874 0 01-1.875-1.875zm0 6c0-1.036.839-1.875 1.875-1.875h9.049a8.426 8.426 0 00-3.243 3.75h-5.806a1.874 1.874 0 01-1.875-1.875zm7.05 4.125a8.405 8.405 0 00.343 3.75h-5.518a1.874 1.874 0 110-3.75h5.175zm9.82-10.625a.5.5 0 100 1 .5.5 0 000-1zm-1.495 4.625a7.125 7.125 0 110 14.25 7.125 7.125 0 010-14.25zm3.323 3.375l-3.838.603v2.659h3.838v-3.262zm-4.816.753l-2.684.424v2.085h2.684v-2.509zm-2.684 5.57l2.684.424v-2.509h-2.684v2.085zm7.5 1.177l-3.838-.603v-2.659h3.838v3.262zm36.221 2.369c.643-.051 1.233-.373 1.77-.967l.199-.236c.241-.344.723-.687 1.447-1.031.268-.172.469-.286.602-.344.349-.229.536-.501.563-.816h-.04c.027-.315-.174-.73-.603-1.245-.08-.115-.174-.387-.281-.817v-.043c-.107-.486-.255-.801-.442-.945l-.161-.129-.161-.085c.349-1.06.308-2.191-.12-3.394-.375-1.002-1.005-2.076-1.889-3.222l-.04-.043a21.995 21.995 0 01-.924-1.374 3.44 3.44 0 01-.363-1.39l.001-.5c0-1.003-.026-1.776-.08-2.32-.134-.917-.402-1.632-.804-2.148-.509-.63-1.232-.945-2.169-.945-1.072 0-1.876.301-2.411.902-.429.458-.683 1.117-.764 1.976-.053.516-.053 1.217 0 2.105.027.401.04.673.04.816a5.29 5.29 0 01-.241 1.418 4.686 4.686 0 01-.683 1.374c-1.152 1.461-1.928 2.85-2.33 4.167-.268.831-.348 1.59-.241 2.277-.107.086-.241.258-.402.515l-.241.344c-.107.115-.308.215-.603.301l-.12.043c-.349.143-.59.358-.724.644a1.04 1.04 0 00-.12.515c0 .115.013.287.04.516l.04.086c.054.401.054.673 0 .816-.187.601-.214 1.045-.08 1.332.134.286.402.472.803.558.161.029.402.057.724.086.679.1 1.185.222 1.516.367l.131.063c.83.486 1.58.644 2.25.472.509-.114.857-.401 1.045-.859.161 0 .415-.043.763-.129a14.53 14.53 0 011.206-.172c.16-.028.469 0 .924.086.536.086.964.115 1.286.086.027.115.053.215.08.301a1.7 1.7 0 00.683.773c.295.172.603.244.924.215zm-2.37-16.538c-.081-.058-.241-.129-.483-.215l.161-.172a1.26 1.26 0 000-.773c-.08-.258-.201-.394-.361-.408-.161-.015-.295.086-.402.3a1.066 1.066 0 00-.081.709 1.882 1.882 0 00-.522-.215 1.657 1.657 0 01.121-.945c.187-.458.475-.687.863-.687.389 0 .69.229.905.687.107.287.147.594.12.924-.027.329-.134.594-.321.795zm-3.536.042c-.215-.2-.342-.479-.382-.837-.04-.358.007-.68.141-.967.134-.286.314-.429.542-.429.228 0 .422.136.583.408.16.272.227.608.201 1.009a1.386 1.386 0 00-.402.215c.027-.2 0-.394-.081-.58-.08-.186-.194-.272-.341-.258-.147.015-.228.179-.241.494-.014.315.06.545.221.688v.043l-.101.086c-.067.057-.114.1-.14.128zm1.406 2.277a.964.964 0 01-.422-.086 1.676 1.676 0 01-.422-.322 3.514 3.514 0 00-.361-.322c-.322-.201-.523-.415-.603-.644-.054-.23 0-.416.161-.559l.643-.472c.348-.373.689-.559 1.024-.559.335 0 .69.129 1.065.387.107.057.254.129.442.215l.482.171c.402.172.543.437.422.795-.121.358-.422.609-.904.752a7.25 7.25 0 00-.462.279 7.25 7.25 0 01-.462.279 1.074 1.074 0 01-.603.086zm-.04-.644c.295 0 .71-.143 1.245-.43.215-.114.416-.265.603-.451.188-.186.228-.279.121-.279-.027-.029-.061-.007-.101.064a.37.37 0 01-.14.151l-.121.086c-.187.172-.335.272-.442.3-.482.315-.884.473-1.205.473-.322 0-.643-.143-.965-.43l-.321-.3-.04-.086c-.054-.086-.101-.129-.141-.129-.04 0-.054.036-.04.107a.386.386 0 00.1.194h.041l.281.3c.375.287.75.43 1.125.43zm-1.527 11.985c-.107-.229-.295-.516-.563-.859.349 0 .57-.136.663-.408.094-.273-.006-.623-.301-1.053-.214-.315-.536-.644-.964-.988l-.563-.387c-.509-.343-.844-.773-1.004-1.288-.134-.458-.134-.96 0-1.504.134-.687.495-1.546 1.085-2.577.107-.086 0 .215-.322.902a5.523 5.523 0 00-.522 1.589c-.107.774.027 1.432.402 1.976a7.899 7.899 0 01.562-2.663l.281-.687c.375-.859.643-1.532.804-2.019.295-.831.455-1.547.482-2.148l.241.215c.081.028.188.114.322.257l.201.172c.241.201.509.301.803.301.295 0 .59-.086.884-.258l.241-.172c.188-.114.322-.186.402-.214.402-.144.697-.358.884-.645.161.63.402 1.361.723 2.191.268.802.536 1.446.804 1.933.482.945.79 1.862.924 2.749.134 0 .281.029.442.086.241-.687.214-1.432-.08-2.233-.215-.602-.496-1.074-.844-1.418-.188-.2-.228-.301-.121-.301.295.287.563.645.804 1.074.295.487.502.988.623 1.504.12.515.127 1.016.02 1.503.991.43 1.406.931 1.246 1.504h-.201c.08-.229.047-.43-.101-.602-.147-.172-.422-.343-.823-.515-.938-.458-1.447-.287-1.527.515-.429.172-.71.573-.844 1.203-.081.315-.148.874-.201 1.675 0 .229-.08.63-.241 1.203v.043c-.723.544-1.46.859-2.21.945a3.287 3.287 0 01-2.411-.601zm4.701 1.761c-.134-.372-.12-.888.04-1.546l.161-.559c.161-.573.241-.974.241-1.203.054-.802.107-1.36.161-1.675.107-.458.295-.759.562-.902h.041c.026.286.107.551.241.795.134.243.314.393.542.451.228.057.496.007.804-.151.308-.157.542-.336.703-.537h.08c.215-.028.382-.028.503 0 .12.029.241.101.361.215.101.096.192.31.274.644l.048.215c.093.458.207.759.341.902v.043c.375.43.563.774.563 1.031-.027.172-.134.33-.322.473-.107.086-.335.215-.683.386-.348.172-.616.33-.803.473-.295.2-.536.43-.724.687-.535.659-1.118 1.017-1.748 1.074-.629.057-1.091-.215-1.386-.816zm-7.674.086c-.375-.201-.965-.344-1.768-.43-.402-.057-.67-.114-.804-.171-.241-.058-.402-.158-.482-.301-.107-.229-.067-.616.12-1.16.054-.2.041-.501-.04-.902v-.129c-.053-.401-.033-.694.06-.881.094-.186.288-.336.583-.451l.161-.086c.241-.085.442-.2.603-.343.08-.086.187-.229.321-.43l.281-.343c.188-.258.429-.358.723-.301.295.057.576.286.844.687l.804 1.547c.08.2.308.544.683 1.031.321.458.549.787.683.988.214.372.308.673.281.902-.053.716-.415 1.131-1.085 1.245-.616.086-1.272-.071-1.968-.472zm54.371-3.213V209a1.5 1.5 0 00-1.5-1.5h-3a1.5 1.5 0 00-1.5 1.5v9.75a1.5 1.5 0 001.5 1.5h3a1.5 1.5 0 001.5-1.5zm1.5-9.75a3 3 0 00-3-3h-3a3 3 0 00-3 3v9.75a3 3 0 003 3h3a3 3 0 003-3V209z" fill="#000"/><path d="M283.75 203.938h12c.478 0 .905.224 1.179.573.106-.007.213-.011.321-.011h1.35a3.002 3.002 0 00-2.85-2.062h-12a3 3 0 00-3 3v6.75a3 3 0 003 3H289v1.84h-3a.75.75 0 000 1.5h6.75v-1.5h-2.25v-1.84h2.25v-2.25h-9a1.5 1.5 0 01-1.5-1.5v-6a1.5 1.5 0 011.5-1.5zm41.739 15.067a5.24 5.24 0 111.41-10.287 7.007 7.007 0 0113.106 2.167 4.066 4.066 0 01-.321 8.12h-14.195zM13.243 248.66v1.703h2.388l-.397 2.547h-1.99V259h-2.758v-6.09H8.26v-2.547h2.227v-2.326c0-.422.088-.832.264-1.231.177-.399.421-.739.733-1.021.919-.799 2.338-.988 4.258-.567v2.154h-1.169c-.426.007-.755.123-.984.35-.227.221-.342.534-.345.938z" fill="#000"/><path fill-rule="evenodd" clip-rule="evenodd" d="M47.838 243.924c1.075-.164 2.442-.181 4.166-.181 1.723 0 3.09.017 4.165.181 1.097.167 1.988.5 2.694 1.203l.014.014c.703.706 1.037 1.596 1.205 2.693.165 1.075.182 2.442.182 4.166 0 1.724-.017 3.091-.182 4.166-.168 1.097-.502 1.988-1.205 2.693l-.014.015c-.706.703-1.597 1.036-2.694 1.203-1.075.163-2.442.18-4.165.18-1.724 0-3.09-.017-4.166-.18-1.096-.167-1.988-.5-2.694-1.203l-.014-.015c-.702-.704-1.038-1.594-1.208-2.691-.167-1.076-.186-2.443-.186-4.168s.02-3.091.186-4.167c.17-1.097.506-1.987 1.208-2.692l.014-.014c.706-.703 1.598-1.036 2.694-1.203zm.241 1.581c-.912.139-1.43.382-1.806.756l-.01.009c-.374.377-.619.897-.76 1.808-.145.932-.167 2.172-.167 3.922 0 1.751.022 2.99.167 3.923.141.911.386 1.431.76 1.808l.01.009c.376.374.894.616 1.806.755.933.142 2.173.162 3.925.162 1.751 0 2.991-.02 3.924-.162.912-.139 1.43-.381 1.806-.755l.01-.009c.374-.377.617-.896.756-1.807.143-.933.164-2.173.164-3.924s-.02-2.991-.164-3.923c-.14-.912-.382-1.431-.757-1.807l-.01-.009c-.375-.374-.893-.617-1.805-.756-.933-.142-2.173-.162-3.924-.162-1.752 0-2.992.02-3.925.162zM47.801 252a4.203 4.203 0 118.406 0 4.203 4.203 0 01-8.406 0zm4.203-2.603a2.603 2.603 0 100 5.207 2.603 2.603 0 000-5.207z" fill="#000"/><path d="M55.34 247.682a.988.988 0 111.975 0 .988.988 0 01-1.976 0zm32.438-2.132c0-1.041-.878-1.754-1.89-1.754-1.011 0-1.88.75-1.888 1.754.009 1.004.886 1.754 1.889 1.754 1.002 0 1.889-.773 1.889-1.754zm-3.588 3.292h3.328v10.104H84.19v-10.104zm11.893-.418c2.238 0 3.917 1.472 3.917 4.629v5.893h-3.332v-5.47c0-1.403-.401-2.315-1.66-2.315-1.033.002-1.668 1.133-1.668 2.104v5.682l-3.325-.001v-10.104h2.99v1.265a3.418 3.418 0 013.078-1.683z" fill="#000"/><path fill-rule="evenodd" clip-rule="evenodd" d="M138.372 248.25v.424a9.3 9.3 0 01-4.849 8.186 9.34 9.34 0 01-9.523-.344c.283 0 .495.071.779.071a6.429 6.429 0 004.106-1.413 3.275 3.275 0 01-3.044-2.261c.207.058.422.082.637.07.288-.012.573-.06.85-.141a3.257 3.257 0 01-2.62-3.179v-.07c.432.241.921.363 1.416.353a3.279 3.279 0 01-1.487-2.685 3.092 3.092 0 01.425-1.625 9.103 9.103 0 006.797 3.391c0-.212-.071-.494-.071-.777a3.291 3.291 0 013.256-3.25 3.196 3.196 0 012.407 1.06 6.503 6.503 0 002.054-.778 3.348 3.348 0 01-1.417 1.838 9.48 9.48 0 001.912-.495 8.851 8.851 0 01-1.628 1.625zm24.128 1.3c0-2.164 1.58-4.002 3.734-4.202a62.393 62.393 0 0111.532 0c2.154.2 3.734 2.038 3.734 4.202v4.9c0 2.164-1.58 4.002-3.734 4.202a62.393 62.393 0 01-11.532 0c-2.154-.2-3.734-2.038-3.734-4.202v-4.9zm7.089 5.277v-5.654l5.655 2.827-5.655 2.827zm38.661-11.577a5 5 0 00-5 5v7.5a5 5 0 005 5h7.5a5 5 0 005-5v-7.5a5 5 0 00-5-5h-7.5zm.701 4.665v8.171h4.434c1.556 0 2.377-.98 2.377-2.205 0-1.029-.698-1.875-1.568-2.009.772-.16 1.409-.846 1.409-1.875 0-1.09-.797-2.082-2.352-2.082h-4.3zm3.92 3.283h-2.181v-1.801h2.181c.588 0 .955.392.955.894 0 .527-.367.907-.955.907zm.061 3.405h-2.242v-1.923h2.242c.686 0 1.054.441 1.054.956 0 .588-.392.967-1.054.967z" fill="#000"/><path d="M249.748 247.092h-1.84a4.908 4.908 0 000 9.816h1.84m4.502-9.816h1.842a4.908 4.908 0 010 9.816h-1.842M247.908 252h8.184" stroke="#000" stroke-width="2" stroke-linecap="round" stroke-linejoin="round"/><path d="M288.889 257.056a1.945 1.945 0 11-3.89-.002 1.945 1.945 0 013.89.002zM285 250.667c0-.553.449-1.006.998-.948a9.338 9.338 0 018.283 8.283c.058.549-.395.998-.948.998H293c-.552 0-.992-.45-1.07-.997a7.007 7.007 0 00-5.933-5.933c-.547-.078-.997-.518-.997-1.07v-.333z" fill="#000"/><path d="M285 246c0-.552.449-1.004 1-.965 6.935.49 12.475 6.03 12.965 12.965.039.551-.413 1-.965 1h-.333c-.553 0-.996-.449-1.043-1-.479-5.645-4.979-10.145-10.624-10.624-.551-.047-1-.49-1-1.043V246z" fill="#000"/></svg>